<svg xmlns="http://www.w3.org/2000/svg" xmlns:xlink="http://www.w3.org/1999/xlink" width="65" zoomAndPan="magnify" viewBox="0 0 48.75 48.75" height="65" preserveAspectRatio="xMidYMid meet" version="1.0"><defs><clipPath id="67e72b75bc"><path d="M 0 0 L 48.5 0 L 48.5 48.5 L 0 48.5 Z M 0 0 " clip-rule="nonzero"/></clipPath><clipPath id="06bd3fec4a"><path d="M 7.3125 6.273438 L 39.398438 6.273438 L 39.398438 38.359375 L 7.3125 38.359375 Z M 7.3125 6.273438 " clip-rule="nonzero"/></clipPath><clipPath id="c85d8210e2"><path d="M 0 0 L 47.753906 0 L 47.753906 47.753906 L 0 47.753906 Z M 0 0 " clip-rule="nonzero"/></clipPath></defs><g clip-path="url(#67e72b75bc)"><path fill="#ffffff" d="M 0 0 L 48.5 0 L 48.5 48.5 L 0 48.5 Z M 0 0 " fill-opacity="1" fill-rule="nonzero"/></g><g clip-path="url(#06bd3fec4a)"><path fill="#e54d25" d="M 20.09375 24.933594 L 20.09375 23.132812 L 29.109375 19.628906 L 38.121094 23.132812 L 38.125 24.933594 Z M 37.0625 31.824219 L 36 31.824219 L 36 25.992188 L 37.0625 25.992188 Z M 38.121094 37.128906 L 20.09375 37.128906 L 20.09375 35.007812 L 38.121094 35.007812 Z M 20.625 32.886719 L 22.746094 32.886719 L 22.746094 33.945312 L 20.625 33.945312 Z M 27.515625 31.972656 C 27.203125 32.15625 26.988281 32.496094 26.988281 32.886719 L 26.988281 33.945312 L 23.804688 33.945312 L 23.804688 32.886719 C 23.804688 32.496094 23.589844 32.15625 23.273438 31.972656 L 23.273438 25.992188 L 27.515625 25.992188 Z M 29.636719 31.824219 L 28.578125 31.824219 L 28.578125 25.992188 L 29.636719 25.992188 Z M 28.046875 32.886719 L 30.167969 32.886719 L 30.167969 33.945312 L 28.046875 33.945312 Z M 34.941406 31.972656 C 34.625 32.15625 34.410156 32.496094 34.410156 32.886719 L 34.410156 33.945312 L 31.230469 33.945312 L 31.230469 32.886719 C 31.230469 32.496094 31.015625 32.15625 30.699219 31.972656 L 30.699219 25.992188 L 34.941406 25.992188 Z M 37.59375 33.945312 L 35.472656 33.945312 L 35.472656 32.886719 L 37.59375 32.886719 Z M 22.214844 25.992188 L 22.214844 31.824219 L 21.152344 31.824219 L 21.152344 25.992188 Z M 19.710938 22.144531 C 19.554688 22.207031 19.429688 22.308594 19.320312 22.421875 L 17.449219 20.554688 C 18.480469 19.523438 18.480469 17.839844 17.449219 16.804688 L 21.160156 13.097656 C 21.355469 12.898438 21.675781 12.890625 21.882812 13.070312 C 22.03125 13.207031 22.1875 13.34375 22.339844 13.480469 C 22.203125 13.578125 22.070312 13.683594 21.949219 13.808594 C 20.707031 15.046875 20.707031 17.066406 21.949219 18.304688 C 22.570312 18.925781 23.386719 19.238281 24.199219 19.238281 C 25.011719 19.238281 25.828125 18.925781 26.449219 18.304688 C 27.472656 17.28125 27.652344 15.707031 26.949219 14.480469 C 27.148438 14.15625 27.257812 13.765625 27.238281 13.367188 C 27.222656 12.824219 26.988281 12.316406 26.585938 11.964844 L 24.257812 9.996094 L 24.949219 9.308594 C 25.464844 9.824219 26.144531 10.082031 26.824219 10.082031 C 27.503906 10.082031 28.183594 9.824219 28.699219 9.308594 L 28.699219 9.304688 L 30.949219 11.558594 C 29.914062 12.589844 29.914062 14.273438 30.949219 15.304688 L 26.90625 19.347656 Z M 16.699219 17.558594 C 17.320312 18.175781 17.320312 19.1875 16.699219 19.808594 L 15.574219 18.683594 Z M 12.386719 18.035156 L 8.425781 18.039062 L 8.425781 10.082031 L 13.199219 10.082031 C 13.351562 10.082031 13.496094 10.148438 13.597656 10.261719 C 13.699219 10.375 13.746094 10.519531 13.726562 10.671875 L 12.917969 17.566406 C 12.882812 17.835938 12.65625 18.035156 12.386719 18.035156 Z M 25.699219 17.558594 C 24.871094 18.382812 23.527344 18.382812 22.699219 17.558594 C 21.871094 16.730469 21.871094 15.386719 22.699219 14.558594 C 22.84375 14.410156 23.007812 14.304688 23.179688 14.210938 C 23.625 14.59375 23.957031 14.875 23.957031 14.875 C 24.550781 15.421875 25.414062 15.527344 26.128906 15.195312 C 26.480469 15.976562 26.332031 16.925781 25.699219 17.558594 Z M 21.199219 9.648438 C 21.625 9.46875 22.105469 9.546875 22.460938 9.863281 C 22.460938 9.863281 25.890625 12.765625 25.894531 12.765625 C 26.269531 13.082031 26.273438 13.730469 25.929688 14.070312 C 25.601562 14.398438 25.015625 14.410156 24.660156 14.082031 C 24.660156 14.078125 22.925781 12.582031 22.585938 12.28125 C 21.960938 11.726562 21.003906 11.757812 20.410156 12.351562 L 15.242188 17.515625 C 14.859375 17.289062 14.542969 17.054688 14.085938 16.699219 L 14.75 11.050781 C 17.835938 10.789062 20.296875 10.03125 21.199219 9.648438 Z M 26.824219 7.429688 L 27.949219 8.554688 L 27.949219 8.558594 C 27.328125 9.175781 26.316406 9.175781 25.699219 8.558594 Z M 31.699219 14.554688 C 31.078125 13.933594 31.078125 12.925781 31.699219 12.308594 L 32.820312 13.433594 Z M 38.507812 22.144531 L 29.492188 18.640625 C 29.390625 18.601562 29.285156 18.582031 29.179688 18.574219 L 33.570312 14.179688 C 33.984375 13.769531 33.984375 13.097656 33.570312 12.683594 L 27.574219 6.679688 C 27.160156 6.265625 26.488281 6.269531 26.074219 6.679688 L 23.445312 9.3125 L 23.15625 9.0625 C 22.503906 8.480469 21.597656 8.328125 20.785156 8.671875 C 19.9375 9.03125 17.609375 9.746094 14.65625 9.992188 C 14.589844 9.835938 14.503906 9.683594 14.390625 9.554688 C 14.085938 9.214844 13.652344 9.023438 13.199219 9.023438 L 8.425781 9.023438 C 7.84375 9.023438 7.367188 9.5 7.367188 10.082031 L 7.367188 18.035156 C 7.367188 18.621094 7.84375 19.097656 8.425781 19.097656 L 12.386719 19.097656 C 13.121094 19.097656 13.742188 18.597656 13.921875 17.902344 C 14.140625 18.0625 14.351562 18.210938 14.574219 18.351562 C 14.453125 18.71875 14.53125 19.136719 14.824219 19.429688 L 19.03125 23.636719 L 19.03125 24.933594 C 19.03125 25.515625 19.507812 25.992188 20.09375 25.992188 L 20.09375 31.972656 C 19.777344 32.15625 19.5625 32.496094 19.5625 32.886719 L 19.5625 34.09375 C 19.25 34.277344 19.03125 34.617188 19.03125 35.007812 L 19.03125 37.128906 C 19.03125 37.714844 19.507812 38.1875 20.09375 38.1875 L 38.121094 38.1875 C 38.707031 38.1875 39.183594 37.714844 39.183594 37.128906 L 39.183594 35.007812 C 39.183594 34.617188 38.96875 34.277344 38.652344 34.09375 L 38.652344 32.886719 C 38.652344 32.496094 38.4375 32.15625 38.121094 31.972656 L 38.121094 25.992188 C 38.707031 25.992188 39.183594 25.515625 39.183594 24.933594 L 39.183594 23.132812 C 39.183594 22.691406 38.917969 22.304688 38.507812 22.144531 " fill-opacity="1" fill-rule="nonzero"/></g><path fill="#e54d25" d="M 30.167969 22.28125 L 28.046875 22.28125 C 27.753906 22.28125 27.515625 22.515625 27.515625 22.8125 C 27.515625 23.101562 27.753906 23.339844 28.046875 23.339844 L 30.167969 23.339844 C 30.460938 23.339844 30.699219 23.101562 30.699219 22.8125 C 30.699219 22.515625 30.460938 22.28125 30.167969 22.28125 " fill-opacity="1" fill-rule="nonzero"/><g clip-path="url(#c85d8210e2)"><path fill="#0f436a" d="M 23.902344 0 C 10.714844 0 0 10.714844 0 23.902344 C 0 37.089844 10.714844 47.800781 23.902344 47.800781 C 37.089844 47.800781 47.800781 37.089844 47.800781 23.902344 C 47.800781 10.714844 37.089844 0 23.902344 0 Z M 23.902344 1.039062 C 36.539062 1.039062 46.761719 11.261719 46.761719 23.902344 C 46.761719 36.539062 36.539062 46.761719 23.902344 46.761719 C 11.261719 46.761719 1.039062 36.539062 1.039062 23.902344 C 1.039062 11.261719 11.261719 1.039062 23.902344 1.039062 Z M 23.902344 1.039062 " fill-opacity="1" fill-rule="nonzero"/></g></svg>