<svg xmlns="http://www.w3.org/2000/svg" xmlns:xlink="http://www.w3.org/1999/xlink" width="65" zoomAndPan="magnify" viewBox="0 0 48.75 48.75" height="65" preserveAspectRatio="xMidYMid meet" version="1.0"><defs><clipPath id="332a0f764c"><path d="M 0 0 L 48.5 0 L 48.5 48.5 L 0 48.5 Z M 0 0 " clip-rule="nonzero"/></clipPath><clipPath id="4be047fcc3"><path d="M 7.644531 6.996094 L 39 6.996094 L 39 38 L 7.644531 38 Z M 7.644531 6.996094 " clip-rule="nonzero"/></clipPath><clipPath id="3000139259"><path d="M 0 0 L 47.753906 0 L 47.753906 47.753906 L 0 47.753906 Z M 0 0 " clip-rule="nonzero"/></clipPath></defs><g clip-path="url(#332a0f764c)"><path fill="#ffffff" d="M 0 0 L 48.5 0 L 48.5 48.5 L 0 48.5 Z M 0 0 " fill-opacity="1" fill-rule="nonzero"/></g><g clip-path="url(#4be047fcc3)"><path fill="#fbb540" d="M 34.066406 11.519531 C 31.117188 8.570312 27.273438 7.070312 23.40625 6.996094 C 25.691406 7.539062 27.863281 8.6875 29.644531 10.46875 C 34.761719 15.582031 34.761719 23.882812 29.644531 28.996094 C 24.527344 34.117188 16.230469 34.117188 11.113281 29 C 9.332031 27.214844 8.1875 25.046875 7.644531 22.761719 C 7.71875 26.628906 9.214844 30.472656 12.164062 33.417969 C 18.214844 39.464844 28.019531 39.464844 34.066406 33.417969 C 40.113281 27.371094 40.113281 17.566406 34.066406 11.519531 Z M 34.066406 11.519531 " fill-opacity="1" fill-rule="nonzero"/></g><path fill="#fbb540" d="M 21.640625 11.882812 L 20.859375 16.3125 L 24.410156 19.074219 L 19.957031 19.699219 L 18.433594 23.929688 L 16.460938 19.886719 L 11.964844 19.742188 L 15.199219 16.617188 L 13.949219 12.300781 L 17.917969 14.410156 Z M 21.640625 11.882812 " fill-opacity="1" fill-rule="nonzero"/><g clip-path="url(#3000139259)"><path fill="#0f436a" d="M 23.902344 0 C 10.714844 0 0 10.714844 0 23.902344 C 0 37.089844 10.714844 47.800781 23.902344 47.800781 C 37.089844 47.800781 47.800781 37.089844 47.800781 23.902344 C 47.800781 10.714844 37.089844 0 23.902344 0 Z M 23.902344 1.039062 C 36.539062 1.039062 46.761719 11.261719 46.761719 23.902344 C 46.761719 36.539062 36.539062 46.761719 23.902344 46.761719 C 11.261719 46.761719 1.039062 36.539062 1.039062 23.902344 C 1.039062 11.261719 11.261719 1.039062 23.902344 1.039062 Z M 23.902344 1.039062 " fill-opacity="1" fill-rule="nonzero"/></g></svg>