<svg width="32" height="32" viewBox="0 0 32 32" fill="none" xmlns="http://www.w3.org/2000/svg">
    <path d="M22.2521 18.3438V19.2531C21.7974 19.8837 21.0641 20.2798 20.2427 20.2798C19.4214 20.2798 18.6587 19.8691 18.2188 19.2384V18.3438H22.2521Z" fill="#0C5080"/>
    <path d="M22.2521 19.8093V20.9386C21.6801 21.32 20.9761 21.54 20.2427 21.54C19.5094 21.54 18.8054 21.32 18.2188 20.9386V19.7946C18.7321 20.3226 19.4507 20.6453 20.2427 20.6453C21.0347 20.6453 21.7387 20.3226 22.2521 19.8093Z" fill="#0C5080"/>
    <path d="M20.2427 22.2898C20.9761 22.2898 21.6507 22.1138 22.2521 21.8058V25.5751L20.3308 24.0351C20.2574 23.9765 20.1841 23.9471 20.0961 23.9471C20.0081 23.9471 19.9347 23.9765 19.8614 24.0351L18.2188 25.5165V21.8058C18.8201 22.1138 19.5094 22.2898 20.2427 22.2898Z" fill="#0C5080"/>
    <path d="M22.7252 17.8157C22.7252 18.3584 22.5492 18.8571 22.2559 19.2677C21.8012 19.8984 21.0679 20.2944 20.2465 20.2944C19.4252 20.2944 18.6625 19.8837 18.2225 19.253C17.9292 18.8424 17.7679 18.3584 17.7679 17.8157C17.7679 17.7571 17.7679 17.6984 17.7825 17.6397C17.8705 16.3491 18.9265 15.3371 20.2465 15.3371C21.5665 15.3371 22.6225 16.3491 22.7105 17.6397C22.7105 17.6984 22.7105 17.7571 22.7105 17.8157H22.7252Z" fill="#0C5080"/>
    <path d="M20.2445 14.0737C18.1765 14.0737 16.5045 15.7603 16.5045 17.8137C16.5045 18.7963 16.8711 19.6763 17.4871 20.3363C17.7071 20.571 17.9418 20.7763 18.2205 20.9523C18.8071 21.3337 19.4965 21.5537 20.2445 21.5537C20.9925 21.5537 21.6818 21.3337 22.2538 20.9523C22.5325 20.791 22.7671 20.571 22.9871 20.3363C23.6031 19.6763 23.9845 18.7963 23.9845 17.8137C23.9845 15.7603 22.2978 14.0737 20.2445 14.0737ZM22.2538 19.8083C21.7405 20.3217 21.0218 20.6443 20.2445 20.6443C19.4671 20.6443 18.7338 20.3217 18.2205 19.7937C17.8685 19.4417 17.6045 18.987 17.4871 18.4737C17.4285 18.2537 17.3991 18.0337 17.3991 17.799C17.3991 16.2297 18.6751 14.9537 20.2445 14.9537C21.8138 14.9537 23.0898 16.2297 23.0898 17.799C23.0898 18.0483 23.0605 18.2977 22.9871 18.5323C22.8551 19.0163 22.6058 19.4563 22.2538 19.8083Z" fill="#0C5080"/>
    <path d="M4.66965 4.99733V27.6867C4.66965 28.2293 5.10965 28.684 5.66698 28.684H25.6723C26.215 28.684 26.6696 28.244 26.6696 27.6867V4.99733C26.6696 4.45467 26.2296 4 25.6723 4H5.66698C5.12431 4 4.66965 4.44 4.66965 4.99733ZM8.64431 7.828H22.695V8.64933H8.64431V7.828ZM8.64431 10.732H22.695V11.5533H8.64431V10.732ZM13.939 17.3467H8.64431V16.5253H13.939V17.3467ZM15.611 14.4427H8.64431V13.6213H15.611V14.4427ZM22.9883 21.336V26.3373C22.9883 26.4693 22.915 26.6013 22.783 26.66C22.651 26.7187 22.5043 26.704 22.4016 26.616L20.1136 24.7973L18.1043 26.6013C18.031 26.66 17.943 26.704 17.855 26.704C17.811 26.704 17.7523 26.704 17.7083 26.66C17.5763 26.6013 17.4883 26.4693 17.4883 26.3373V21.336C16.139 20.2947 15.4056 18.4613 15.9483 16.5253C16.3296 15.1467 17.415 14.0173 18.779 13.5773C21.859 12.58 24.719 14.868 24.719 17.816C24.719 19.2533 24.0443 20.5293 22.9883 21.336Z" fill="#0C5080"/>
</svg>
