<svg width="142" height="143" viewBox="0 0 142 143" fill="none" xmlns="http://www.w3.org/2000/svg">
<path d="M102.056 61.2068C104.131 57.9209 109.492 61.7255 110.184 67.4323C111.394 73.4848 107.417 90.2595 99.2891 94.0641" stroke="#0C5080" stroke-width="1.04206"/>
<path d="M35.3385 61.2136C33.2634 57.9278 27.9024 61.7323 27.2107 67.4391C26.0002 73.4916 29.9776 90.2664 38.1055 94.0709" stroke="#0C5080" stroke-width="1.04206"/>
<path d="M67.9789 15.5537C42.7999 15.5537 34.257 36.9397 33.2194 47.7192C32.5536 54.6365 32.1818 71.411 33.7382 75.2155C35.6404 80.7494 38.139 103.231 38.4074 104.787C39.4211 110.667 51.3773 121.389 51.8961 121.734C52.4149 122.08 58.5143 128.154 61.0616 128.825C64.3473 129.689 72.1293 130.035 75.7609 128.825C79.7383 128.133 83.7158 122.945 85.618 121.389C86.8286 120.178 98.1293 110.667 99.2797 104.787C100.87 96.6592 102.28 80.7494 103.603 75.2155C105.505 67.2606 104.986 54.1177 104.295 46.6816C102.565 36.3056 94.6105 15.5537 67.9789 15.5537Z" stroke="#0C5080" stroke-width="1.5"/>
<path d="M53.2238 26.4014L59.8531 51.4118M53.2238 26.4014H84.2609M53.2238 26.4014L36.9519 35.4413M59.8531 51.4118H77.6316M59.8531 51.4118L53.2238 59.5478M59.8531 51.4118L36.9519 35.4413M77.6316 51.4118L84.2609 26.4014M77.6316 51.4118L84.2609 59.5478M77.6316 51.4118L101.135 35.4413M84.2609 26.4014L101.135 35.4413M53.2238 59.5478L68.5917 73.7103M53.2238 59.5478H41.4719M68.5917 73.7103L84.2609 59.5478M68.5917 73.7103L83.6582 82.4489M68.5917 73.7103L54.4291 82.4489M68.5917 73.7103L74.3169 90.2835M68.5917 73.7103L62.8664 90.2835M84.2609 59.5478H96.0128M101.135 35.4413L96.0128 59.5478M96.0128 59.5478L104.149 73.409L83.6582 82.4489M36.9519 35.4413L41.4719 59.5478M41.4719 59.5478L33.3359 73.409L54.4291 82.4489M83.6582 82.4489L74.3169 90.2835M83.6582 82.4489L83.9595 108.966M83.6582 82.4489L98.4234 105.953L83.9595 108.966M74.3169 90.2835H62.8664M74.3169 90.2835L68.5917 95.4061L62.8664 90.2835M74.3169 90.2835L83.9595 108.966M62.8664 90.2835L54.4291 82.4489M62.8664 90.2835L53.2238 108.966M54.4291 82.4489L53.2238 108.966M54.4291 82.4489L38.7599 105.953L53.2238 108.966M83.9595 108.966L68.5917 118.609M83.9595 108.966L84.8635 122.225L68.5917 118.609M68.5917 118.609L53.2238 108.966M68.5917 118.609L52.6211 122.225L53.2238 108.966" stroke="#0C5080" stroke-width="0.260516" stroke-linecap="round" stroke-dasharray="1.04 1.04"/>
<circle cx="84.0767" cy="108.937" r="0.777081" fill="#1A82CF" stroke="#0C5080" stroke-width="0.521031"/>
<circle cx="68.5142" cy="118.623" r="0.777081" fill="#1A82CF" stroke="#0C5080" stroke-width="0.521031"/>
<circle cx="53.2954" cy="108.937" r="0.777081" fill="#1A82CF" stroke="#0C5080" stroke-width="0.521031"/>
<circle cx="38.8931" cy="105.786" r="0.777081" fill="#1A82CF" stroke="#0C5080" stroke-width="0.521031"/>
<circle cx="33.4712" cy="73.2427" r="0.777081" fill="#1A82CF" stroke="#0C5080" stroke-width="0.521031"/>
<circle cx="103.983" cy="73.2427" r="0.777081" fill="#1A82CF" stroke="#0C5080" stroke-width="0.521031"/>
<circle cx="98.561" cy="105.786" r="0.777081" fill="#1A82CF" stroke="#0C5080" stroke-width="0.521031"/>
<circle cx="84.6978" cy="122.058" r="0.777081" fill="#1A82CF" stroke="#0C5080" stroke-width="0.521031"/>
<circle cx="52.7563" cy="122.058" r="0.777081" fill="#1A82CF" stroke="#0C5080" stroke-width="0.521031"/>
<circle cx="68.5142" cy="95.4478" r="0.777081" fill="#1A82CF" stroke="#0C5080" stroke-width="0.521031"/>
<circle cx="74.3892" cy="90.2612" r="0.777081" fill="#1A82CF" stroke="#0C5080" stroke-width="0.521031"/>
<circle cx="83.4868" cy="82.2817" r="0.777081" fill="#1A82CF" stroke="#0C5080" stroke-width="0.521031"/>
<circle cx="54.3384" cy="82.3071" r="0.777081" fill="#1A82CF" stroke="#0C5080" stroke-width="0.521031"/>
<circle cx="62.9751" cy="90.2612" r="0.777081" fill="#1A82CF" stroke="#0C5080" stroke-width="0.521031"/>
<circle cx="68.5142" cy="73.6587" r="0.777081" fill="#1A82CF" stroke="#0C5080" stroke-width="0.521031"/>
<circle cx="59.8657" cy="51.5239" r="0.777081" fill="#1A82CF" stroke="#0C5080" stroke-width="0.521031"/>
<circle cx="53.2954" cy="59.478" r="0.777081" fill="#1A82CF" stroke="#0C5080" stroke-width="0.521031"/>
<circle cx="84.0767" cy="59.478" r="0.777081" fill="#1A82CF" stroke="#0C5080" stroke-width="0.521031"/>
<circle cx="95.8423" cy="59.478" r="0.777081" fill="#1A82CF" stroke="#0C5080" stroke-width="0.521031"/>
<circle cx="100.975" cy="35.2739" r="0.777081" fill="#1A82CF" stroke="#0C5080" stroke-width="0.521031"/>
<circle cx="37.0845" cy="35.2739" r="0.777081" fill="#1A82CF" stroke="#0C5080" stroke-width="0.521031"/>
<circle cx="77.5063" cy="51.5239" r="0.777081" fill="#1A82CF" stroke="#0C5080" stroke-width="0.521031"/>
<circle cx="41.5415" cy="59.478" r="0.777081" fill="#1A82CF" stroke="#0C5080" stroke-width="0.521031"/>
<circle cx="53.2954" cy="26.2759" r="0.777081" fill="#1A82CF" stroke="#0C5080" stroke-width="0.521031"/>
<circle cx="84.0767" cy="26.2759" r="0.777081" fill="#1A82CF" stroke="#0C5080" stroke-width="0.521031"/>
<path d="M0.988281 28.2063V18.8706C0.988281 8.9177 9.00748 0.849609 18.9001 0.849609H28.1849" stroke="#0C5080" stroke-width="0.742188" stroke-linecap="round" stroke-linejoin="round"/>
<path d="M141.451 28.2063V18.8706C141.451 8.9177 133.431 0.849609 123.539 0.849609H114.254" stroke="#0C5080" stroke-width="0.742188" stroke-linecap="round" stroke-linejoin="round"/>
<path d="M0.988281 114.829V124.165C0.988281 134.118 9.00748 142.186 18.9001 142.186H28.1849" stroke="#0C5080" stroke-width="0.742188" stroke-linecap="round" stroke-linejoin="round"/>
<path d="M141.451 114.829V124.165C141.451 134.118 133.431 142.186 123.539 142.186H114.254" stroke="#0C5080" stroke-width="0.742188" stroke-linecap="round" stroke-linejoin="round"/>
<rect opacity="0.7" x="1.36719" y="70.1006" width="139.849" height="72.3194" fill="url(#paint0_linear_543_42939)"/>
<defs>
<linearGradient id="paint0_linear_543_42939" x1="71.5866" y1="23.2628" x2="71.5866" y2="142.42" gradientUnits="userSpaceOnUse">
<stop stop-color="#487CA0"/>
<stop offset="1" stop-color="#1A82CF" stop-opacity="0"/>
</linearGradient>
</defs>
</svg>
