<svg width="123" height="123" viewBox="0 0 123 123" fill="none" xmlns="http://www.w3.org/2000/svg">
<path d="M24.8741 50.1484C24.8741 50.1484 23.3711 55.577 23.3711 63.907C23.3711 67.9755 23.8492 71.6867 24.3382 74.4194" stroke="#0C5080" stroke-linecap="round"/>
<path d="M60.2368 15.3077C60.2368 15.3077 50.2881 15.2141 41.2699 22.5146C36.8129 26.1225 33.4223 31.0793 31.1328 35.1702" stroke="#0C5080" stroke-linecap="round"/>
<path d="M97.8145 62.48C97.8145 62.48 97.3135 42.5755 87.1501 29.5656C82.8382 24.0461 78.405 20.7736 74.7656 18.8369" stroke="#0C5080" stroke-linecap="round"/>
<path d="M29.7734 90.7697C29.7734 90.7697 31.7775 86.2771 31.2049 79.5382C30.6323 72.7993 30.0597 70.8338 30.0597 65.0776C30.0597 60.4304 30.0597 48.7972 36.8775 38.2324" stroke="#0C5080" stroke-linecap="round"/>
<path d="M48.8477 26.3753C48.8477 26.3753 63.2411 17.6391 78.2643 30.525C85.9427 37.1111 89.3831 48.0252 90.9196 56.0838" stroke="#0C5080" stroke-linecap="round"/>
<path d="M92.6676 78.6016C92.6676 78.6016 92.7498 81.5558 92.4727 86.9683" stroke="#0C5080" stroke-linecap="round"/>
<path d="M66.761 32.5422C66.761 32.5422 53.455 26.8422 42.6646 41.6288C36.3183 50.3254 36.3999 59.2541 36.3349 64.084C36.2694 68.9502 37.3444 74.0052 37.3444 78.685C37.3444 80.0972 37.2943 81.4528 37.2064 82.7437" stroke="#0C5080" stroke-linecap="round"/>
<path d="M85.3953 99.7084C85.1485 99.6938 90.049 67.715 82.7233 48.2931C81.8904 46.0854 80.8927 44.2187 79.8555 42.6553" stroke="#0C5080" stroke-linecap="round"/>
<path d="M38.9766 103.03C38.9766 103.03 40.8128 98.6514 41.7642 94.7402" stroke="#0C5080" stroke-linecap="round"/>
<path d="M43.2069 84.9355C43.2069 84.9355 43.5647 81.0355 43.4216 76.1685C43.2784 71.3015 42.3242 69.0552 42.3242 63.2523C42.3242 57.4493 44.6083 47.3934 51.8194 42.5675C57.9581 38.4594 63.1987 39.0438 67.1722 41.0348" stroke="#0C5080" stroke-linecap="round"/>
<path d="M78.0352 55.9043C78.0352 55.9043 80.2299 62.1442 80.2299 81.3624C80.2299 88.3301 79.6896 94.2158 79.0996 98.5668" stroke="#0C5080" stroke-linecap="round"/>
<path d="M44.5859 107.335C44.5859 107.335 48.9611 97.6336 49.5961 85.2157C50.0971 75.4192 48.4884 69.4485 48.4884 64.7915C48.4884 63.6557 48.5417 62.6167 48.6338 61.6699" stroke="#0C5080" stroke-linecap="round"/>
<path d="M56.1836 48.5727C56.1836 48.5727 57.4722 47.5742 60.7168 47.5742C63.8182 47.5742 67.4922 49.0871 70.1166 53.5018C72.36 57.276 74.1726 61.5825 74.1726 83.6555C74.1726 88.6513 73.614 93.6062 72.9114 97.8626" stroke="#0C5080" stroke-linecap="round"/>
<path d="M50.0352 110.097C50.0352 110.097 55.7132 95.5584 55.7132 82.6422C55.7132 69.7259 54.7115 67.2925 54.6133 64.6422C54.524 62.2285 55.0044 57.1193 59.3397 55.624C63.6819 54.1265 66.1669 58.5191 66.8787 61.1151C67.1638 62.1548 67.386 63.546 67.5595 65.1031" stroke="#0C5080" stroke-linecap="round"/>
<path d="M67.6335 88.3516C67.6335 88.3516 67.6739 94.4757 64.0039 108.667" stroke="#0C5080" stroke-linecap="round"/>
<path d="M60.8984 63.7197C60.8984 63.7197 62.0914 69.5852 62.0914 81.3158C62.0914 85.6156 61.7768 89.1325 61.4166 91.7487" stroke="#0C5080" stroke-linecap="round"/>
<path d="M58.4137 105.573C58.4137 105.573 57.2562 109.426 56.6602 111.41" stroke="#0C5080" stroke-linecap="round"/>
<g opacity="0.35">
<path d="M24.8741 50.1484C24.8741 50.1484 23.3711 55.577 23.3711 63.907C23.3711 72.2371 25.3751 79.0696 25.3751 79.0696" stroke="#0C5080" stroke-linecap="round"/>
<path d="M60.2312 15.3077C60.2312 15.3077 50.2825 15.2141 41.2643 22.5146C32.246 29.8151 27.5938 42.6377 27.5938 42.6377" stroke="#0C5080" stroke-linecap="round"/>
<path d="M97.8154 62.4799C97.8154 62.4799 97.3144 42.5754 87.1509 29.5655C77.2034 16.832 66.6094 16.0566 66.6094 16.0566" stroke="#0C5080" stroke-linecap="round"/>
<path d="M29.7734 90.7698C29.7734 90.7698 31.7775 86.2771 31.2049 79.5382C30.6323 72.7993 30.0597 70.8338 30.0597 65.0777C30.0597 59.3215 30.0597 42.8486 43.0145 30.9619" stroke="#0C5080" stroke-linecap="round"/>
<path d="M48.8477 26.3753C48.8477 26.3753 63.2411 17.6391 78.2643 30.525C91.577 41.9437 92.1496 66.3722 92.1496 66.3722L92.3643 70.0225" stroke="#0C5080" stroke-linecap="round"/>
<path d="M92.6808 78.6016C92.6808 78.6016 92.7799 82.1582 92.3945 88.6163" stroke="#0C5080" stroke-linecap="round"/>
<path d="M66.7612 32.5422C66.7612 32.5422 53.4551 26.8422 42.6647 41.6288C36.3185 50.3254 36.4001 59.2541 36.3351 64.084C36.2695 68.9502 37.3445 74.0052 37.3445 78.685C37.3445 89.8697 34.1953 97.4978 34.1953 97.4978" stroke="#0C5080" stroke-linecap="round"/>
<path d="M85.3938 99.7072C85.147 99.6925 90.0475 67.7138 82.7218 48.2919C79.2385 39.057 72.8693 35.7946 72.7969 35.6875" stroke="#0C5080" stroke-linecap="round"/>
<path d="M38.9766 103.03C38.9766 103.03 41.4101 97.2274 42.1258 93.0156" stroke="#0C5080" stroke-linecap="round"/>
<path d="M43.2069 84.9354C43.2069 84.9354 43.5647 81.0354 43.4216 76.1684C43.2784 71.3014 42.3242 69.0551 42.3242 63.2522C42.3242 57.4492 44.6083 47.3933 51.8194 42.5675C66.0388 33.0517 75.4387 48.7137 75.4387 48.7137" stroke="#0C5080" stroke-linecap="round"/>
<path d="M78.0271 55.9043C78.0271 55.9043 80.2218 62.1442 80.2218 81.3624C80.2218 96.7204 77.5977 106.821 77.5977 106.821" stroke="#0C5080" stroke-linecap="round"/>
<path d="M44.5859 107.336C44.5859 107.336 48.9611 97.6342 49.5961 85.2162C50.0971 75.4197 48.4884 69.449 48.4884 64.7921C48.4884 56.4197 51.3854 53.3311 51.3854 53.3311" stroke="#0C5080" stroke-linecap="round"/>
<path d="M56.1836 48.5727C56.1836 48.5727 57.4722 47.5742 60.7168 47.5742C63.8182 47.5742 67.4922 49.0871 70.1166 53.5018C72.36 57.276 74.1726 61.5825 74.1726 83.6555C74.1726 97.1176 70.1166 110.284 70.1166 110.284" stroke="#0C5080" stroke-linecap="round"/>
<path d="M50.0352 110.097C50.0352 110.097 55.7132 95.5584 55.7132 82.6422C55.7132 69.7259 54.7115 67.2925 54.6133 64.6422C54.524 62.2285 55.0044 57.1193 59.3397 55.624C63.6819 54.1265 66.1669 58.5191 66.8787 61.1151C68.2841 66.2419 68.167 79.9122 68.167 79.9122" stroke="#0C5080" stroke-linecap="round"/>
<path d="M67.6331 88.3516C67.6331 88.3516 67.6809 95.5895 62.957 112.561" stroke="#0C5080" stroke-linecap="round"/>
<path d="M60.9037 63.7197C60.9037 63.7197 62.0967 69.5852 62.0967 81.3158C62.0967 91.3616 60.3789 97.1335 60.3789 97.1335" stroke="#0C5080" stroke-linecap="round"/>
<path d="M58.42 105.573L56.3203 112.561" stroke="#0C5080" stroke-linecap="round"/>
</g>
<path d="M0.59375 24.0888V16.0176C0.59375 7.41277 7.52674 0.4375 16.0794 0.4375H24.1066" stroke="#0C5080" stroke-width="0.742188" stroke-linecap="round" stroke-linejoin="round"/>
<path d="M122.032 24.0897V16.0185C122.032 7.41374 115.099 0.438477 106.547 0.438477H98.5195" stroke="#0C5080" stroke-width="0.742188" stroke-linecap="round" stroke-linejoin="round"/>
<path d="M0.59375 98.9795V107.051C0.59375 115.655 7.52674 122.631 16.0794 122.631H24.1066" stroke="#0C5080" stroke-width="0.742188" stroke-linecap="round" stroke-linejoin="round"/>
<path d="M122.032 98.9795V107.051C122.032 115.655 115.099 122.631 106.547 122.631H98.5195" stroke="#0C5080" stroke-width="0.742188" stroke-linecap="round" stroke-linejoin="round"/>
</svg>
