<svg width="192" height="195" viewBox="0 0 192 195" fill="none" xmlns="http://www.w3.org/2000/svg">
<path d="M101.053 4.96631H58.8719C57.5023 4.96631 56.1328 6.06193 56.1328 7.70536V74.5382C56.1328 75.9077 57.2284 77.2772 58.8719 77.2772H87.6319V30.1656C87.6319 28.796 88.7275 27.4265 90.3709 27.4265H104.066V7.70536C103.792 6.06193 102.423 4.96631 101.053 4.96631ZM100.505 17.8398C100.505 19.4833 99.1359 20.8528 97.4925 20.8528H93.6578C92.0144 20.8528 90.6448 19.4833 90.6448 17.8398V14.8269C90.6448 13.1835 92.0144 11.8139 93.6578 11.8139H97.4925C99.1359 11.8139 100.505 13.1835 100.505 14.8269V17.8398Z" fill="#1A82CF"/>
<path d="M132.278 27.4272H103.792V74.265C103.792 75.6345 102.696 77.0041 101.053 77.0041H87.3574V96.9991C87.3574 98.3687 88.453 99.7382 90.0965 99.7382H132.278C133.647 99.7382 135.017 98.6426 135.017 96.9991V30.1663C135.017 28.7968 133.921 27.4272 132.278 27.4272ZM100.505 89.8776C100.505 91.521 99.1353 92.8905 97.4919 92.8905H93.6572C92.0138 92.8905 90.6443 91.521 90.6443 89.8776V86.8646C90.6443 85.2212 92.0138 83.8517 93.6572 83.8517H97.4919C99.1353 83.8517 100.505 85.2212 100.505 86.8646V89.8776Z" fill="#1A82CF"/>
<path d="M9.4814 127.441V130.25C9.4814 131.762 8.18848 133.059 6.68007 133.059H3.01681C1.50841 133.059 0.215483 131.762 0.215483 130.25V127.441C0.215483 125.929 1.50841 124.633 3.01681 124.633H6.68007C8.18848 124.633 9.4814 125.929 9.4814 127.441ZM9.4814 137.596V170.867C9.4814 172.163 8.40397 173.243 7.11105 173.243H2.37035C1.07743 173.243 0 172.163 0 170.867V139.756C0 138.46 1.07743 137.596 2.37035 137.596H9.4814Z" fill="#E54C25"/>
<path d="M21.334 124.849H56.4583V128.737H41.1587V173.243H36.6335V128.737H21.334V124.849Z" fill="#040B12"/>
<path d="M72.4048 173.244H68.3105V138.46H72.4048V144.942H72.6203C73.6977 142.133 75.2061 140.189 76.93 139.109C78.6539 138.028 81.0242 137.596 84.0411 137.596V141.917C81.6707 141.917 79.9468 142.133 78.4384 142.997C76.93 143.862 75.8526 144.726 74.9906 146.022C74.1287 147.318 73.4822 148.831 73.2667 150.559C73.0513 152.287 72.8358 154.232 72.8358 156.176V173.244H72.4048Z" fill="#040B12"/>
<path d="M120.028 138.459H124.122V173.242H120.028V168.489C119.597 169.137 118.95 169.786 118.304 170.434C117.657 171.082 116.795 171.73 115.933 172.378C115.072 173.026 113.994 173.458 112.917 173.89C111.839 174.323 110.331 174.539 108.822 174.539C106.452 174.539 104.513 174.106 103.004 173.674C101.496 173.026 100.203 172.162 99.1255 170.866C98.2636 169.786 97.4017 168.273 96.9707 166.761C96.5397 165.249 96.3242 163.52 96.3242 161.792V138.459H100.418V161.36C100.418 164.384 101.065 166.545 102.573 168.273C103.866 169.786 106.237 170.65 109.469 170.65C111.193 170.65 112.701 170.218 113.994 169.57C115.287 168.921 116.364 168.057 117.226 166.761C118.088 165.681 118.735 164.168 119.381 162.656C119.812 161.144 120.028 159.199 120.028 157.255V138.459Z" fill="#040B12"/>
<path d="M142.225 162.441C142.872 165.466 143.949 167.626 145.673 168.707C147.397 170.003 149.552 170.651 152.568 170.651C154.077 170.651 155.37 170.435 156.447 170.219C157.525 169.787 158.387 169.355 159.033 168.707C159.68 168.059 160.326 167.41 160.541 166.762C160.972 165.898 160.972 165.25 160.972 164.386C160.972 162.657 160.326 161.361 159.249 160.497C158.171 159.633 156.878 158.985 155.154 158.553C153.43 158.121 151.707 157.688 149.767 157.256C147.828 156.824 146.104 156.392 144.38 155.744C142.656 155.096 141.363 154.016 140.286 152.935C139.208 151.639 138.562 149.911 138.562 147.534C138.562 144.726 139.639 142.349 141.794 140.405C143.949 138.46 146.966 137.596 150.845 137.596C154.508 137.596 157.74 138.46 159.895 140.189C162.265 141.917 163.558 144.726 164.205 148.615H160.11C159.68 146.022 158.818 144.078 157.094 142.997C155.37 141.917 153.215 141.269 150.845 141.269C148.259 141.269 146.319 141.917 145.026 142.997C143.734 144.078 143.087 145.59 143.087 147.318C143.087 148.831 143.734 150.127 144.811 150.991C145.888 151.855 147.181 152.503 148.905 152.935C150.629 153.368 152.353 154.016 154.292 154.232C156.232 154.664 157.956 155.312 159.679 155.96C161.403 156.608 162.696 157.688 163.774 158.985C164.851 160.281 165.498 162.009 165.498 164.17C165.498 165.898 165.067 167.194 164.42 168.491C163.774 169.787 162.696 170.867 161.403 171.731C160.11 172.596 158.602 173.244 156.878 173.676C155.154 174.108 153.215 174.324 151.276 174.324C149.121 174.324 147.397 174.108 145.888 173.46C144.38 172.812 142.872 171.947 141.794 170.867C140.717 169.787 139.855 168.491 139.208 167.194C138.562 165.682 138.131 164.17 138.131 162.657H142.225V162.441Z" fill="#040B12"/>
<path d="M191.57 173.459C191.139 173.459 190.492 173.675 189.63 173.891C188.768 174.107 187.906 174.323 187.045 174.323C185.105 174.323 183.597 173.891 182.519 172.811C181.442 171.731 181.011 170.002 181.011 167.41V141.917H176.055V138.46H181.011V128.738H185.105V138.46H191.57V141.917H185.105V165.682C185.105 166.546 185.105 167.194 185.105 167.842C185.105 168.49 185.321 168.922 185.536 169.354C185.752 169.786 186.183 170.002 186.614 170.219C187.044 170.435 187.691 170.435 188.553 170.435C188.984 170.435 189.63 170.435 190.277 170.219C190.923 170.219 191.354 170.002 192.001 169.786V173.459H191.57Z" fill="#040B12"/>
<path d="M1.07812 185.343H7.32723V186.423H2.37104V189.232H6.89626V190.312H2.37104V194.417H1.07812V185.343Z" fill="#040B12"/>
<path d="M31.8926 185.343H33.1855V194.417H31.8926V185.343Z" fill="#040B12"/>
<path d="M57.9648 185.343H59.4732L63.9985 192.689V185.343H65.0759V194.417H63.783L59.2578 187.072V194.417H58.1803V185.343H57.9648Z" fill="#040B12"/>
<path d="M92.6607 185.343H93.9536L97.1859 194.417H95.893L95.031 191.609H91.5832L90.5058 194.417H89.2129L92.6607 185.343ZM94.6 190.744L93.3071 186.856L91.7987 190.744H94.6Z" fill="#040B12"/>
<path d="M121.318 185.343H122.827L127.352 192.689V185.343H128.429V194.417H127.136L122.611 187.072V194.417H121.534V185.343H121.318Z" fill="#040B12"/>
<path d="M159.892 185.991C160.538 186.639 160.969 187.287 160.969 188.151H159.676C159.461 187.503 159.245 187.071 158.814 186.855C158.383 186.639 157.952 186.423 157.09 186.423C156.228 186.423 155.582 186.639 154.935 187.287C154.289 187.935 154.074 188.799 154.074 190.096C154.074 191.176 154.289 192.04 154.72 192.688C155.151 193.336 156.013 193.769 156.875 193.769C157.737 193.769 158.383 193.336 159.03 192.688C159.245 192.256 159.461 191.824 159.676 191.176H160.969C160.969 192.04 160.538 192.904 159.892 193.552C159.245 194.417 158.168 194.633 157.09 194.633C156.013 194.633 155.151 194.417 154.504 193.769C153.643 192.904 152.996 191.608 152.996 189.88C152.996 188.583 153.427 187.503 154.074 186.639C154.935 185.775 155.797 185.343 157.306 185.343C158.383 185.127 159.245 185.343 159.892 185.991Z" fill="#040B12"/>
<path d="M185.534 185.343H191.998V186.423H186.611V189.232H191.567V190.312H186.611V193.337H191.998V194.417H185.318V185.343H185.534Z" fill="#040B12"/>
</svg>
