<svg width="192" height="194" viewBox="0 0 192 194" fill="none" xmlns="http://www.w3.org/2000/svg">
<path d="M101.054 4.3335H58.8724C57.5028 4.3335 56.1333 5.42912 56.1333 7.07255V73.9054C56.1333 75.2749 57.2289 76.6444 58.8724 76.6444H87.6324V29.5328C87.6324 28.1632 88.728 26.7937 90.3714 26.7937H104.067V7.07255C103.793 5.42912 102.423 4.3335 101.054 4.3335ZM100.506 17.207C100.506 18.8505 99.1364 20.22 97.493 20.22H93.6583C92.0149 20.22 90.6453 18.8505 90.6453 17.207V14.1941C90.6453 12.5506 92.0149 11.1811 93.6583 11.1811H97.493C99.1364 11.1811 100.506 12.5506 100.506 14.1941V17.207Z" fill="#1A82CF"/>
<path d="M132.278 26.7944H103.792V73.6322C103.792 75.0017 102.697 76.3712 101.053 76.3712H87.3579V96.3663C87.3579 97.7358 88.4535 99.1054 90.097 99.1054H132.278C133.648 99.1054 135.017 98.0097 135.017 96.3663V29.5335C135.017 28.164 133.922 26.7944 132.278 26.7944ZM100.505 89.2448C100.505 90.8882 99.1358 92.2577 97.4924 92.2577H93.6577C92.0143 92.2577 90.6448 90.8882 90.6448 89.2448V86.2318C90.6448 84.5884 92.0143 83.2189 93.6577 83.2189H97.4924C99.1358 83.2189 100.505 84.5884 100.505 86.2318V89.2448Z" fill="#1A82CF"/>
<path d="M9.4814 126.809V129.617C9.4814 131.129 8.18848 132.426 6.68007 132.426H3.01681C1.50841 132.426 0.215483 131.129 0.215483 129.617V126.809C0.215483 125.296 1.50841 124 3.01681 124H6.68007C8.18848 124 9.4814 125.296 9.4814 126.809ZM9.4814 136.963V170.234C9.4814 171.53 8.40397 172.61 7.11105 172.61H2.37035C1.07743 172.61 0 171.53 0 170.234V139.123C0 137.827 1.07743 136.963 2.37035 136.963H9.4814Z" fill="#E54C25"/>
<path d="M21.334 124.216H56.4583V128.105H41.1587V172.61H36.6335V128.105H21.334V124.216Z" fill="white"/>
<path d="M72.4048 172.611H68.3105V137.828H72.4048V144.309H72.6203C73.6977 141.5 75.2061 139.556 76.93 138.476C78.6539 137.395 81.0242 136.963 84.0411 136.963V141.284C81.6707 141.284 79.9468 141.5 78.4384 142.365C76.93 143.229 75.8526 144.093 74.9906 145.389C74.1287 146.685 73.4822 148.198 73.2667 149.926C73.0513 151.654 72.8358 153.599 72.8358 155.543V172.611H72.4048Z" fill="white"/>
<path d="M120.028 137.826H124.122V172.609H120.028V167.856C119.597 168.505 118.95 169.153 118.304 169.801C117.657 170.449 116.795 171.097 115.933 171.745C115.072 172.393 113.994 172.826 112.917 173.258C111.839 173.69 110.331 173.906 108.822 173.906C106.452 173.906 104.513 173.474 103.004 173.042C101.496 172.393 100.203 171.529 99.1255 170.233C98.2636 169.153 97.4017 167.64 96.9707 166.128C96.5397 164.616 96.3242 162.887 96.3242 161.159V137.826H100.418V160.727C100.418 163.752 101.065 165.912 102.573 167.64C103.866 169.153 106.237 170.017 109.469 170.017C111.193 170.017 112.701 169.585 113.994 168.937C115.287 168.289 116.364 167.424 117.226 166.128C118.088 165.048 118.735 163.536 119.381 162.023C119.812 160.511 120.028 158.567 120.028 156.622V137.826Z" fill="white"/>
<path d="M142.225 161.809C142.872 164.833 143.949 166.994 145.673 168.074C147.397 169.37 149.552 170.018 152.568 170.018C154.077 170.018 155.37 169.802 156.447 169.586C157.525 169.154 158.387 168.722 159.033 168.074C159.68 167.426 160.326 166.778 160.541 166.13C160.972 165.265 160.972 164.617 160.972 163.753C160.972 162.025 160.326 160.728 159.249 159.864C158.171 159 156.878 158.352 155.154 157.92C153.43 157.488 151.707 157.056 149.767 156.624C147.828 156.191 146.104 155.759 144.38 155.111C142.656 154.463 141.363 153.383 140.286 152.303C139.208 151.006 138.562 149.278 138.562 146.901C138.562 144.093 139.639 141.716 141.794 139.772C143.949 137.828 146.966 136.963 150.845 136.963C154.508 136.963 157.74 137.828 159.895 139.556C162.265 141.284 163.558 144.093 164.205 147.982H160.11C159.68 145.389 158.818 143.445 157.094 142.365C155.37 141.284 153.215 140.636 150.845 140.636C148.259 140.636 146.319 141.284 145.026 142.365C143.734 143.445 143.087 144.957 143.087 146.685C143.087 148.198 143.734 149.494 144.811 150.358C145.888 151.222 147.181 151.871 148.905 152.303C150.629 152.735 152.353 153.383 154.292 153.599C156.232 154.031 157.956 154.679 159.679 155.327C161.403 155.975 162.696 157.056 163.774 158.352C164.851 159.648 165.498 161.377 165.498 163.537C165.498 165.265 165.067 166.562 164.42 167.858C163.774 169.154 162.696 170.234 161.403 171.099C160.11 171.963 158.602 172.611 156.878 173.043C155.154 173.475 153.215 173.691 151.276 173.691C149.121 173.691 147.397 173.475 145.888 172.827C144.38 172.179 142.872 171.315 141.794 170.234C140.717 169.154 139.855 167.858 139.208 166.562C138.562 165.049 138.131 163.537 138.131 162.025H142.225V161.809Z" fill="white"/>
<path d="M191.569 172.826C191.138 172.826 190.491 173.042 189.629 173.258C188.767 173.475 187.905 173.691 187.044 173.691C185.104 173.691 183.596 173.258 182.518 172.178C181.441 171.098 181.01 169.37 181.01 166.777V141.284H176.054V137.827H181.01V128.105H185.104V137.827H191.569V141.284H185.104V165.049C185.104 165.913 185.104 166.561 185.104 167.209C185.104 167.857 185.32 168.289 185.535 168.722C185.751 169.154 186.182 169.37 186.613 169.586C187.044 169.802 187.69 169.802 188.552 169.802C188.983 169.802 189.629 169.802 190.276 169.586C190.922 169.586 191.353 169.37 192 169.154V172.826H191.569Z" fill="white"/>
<path d="M1.07935 184.71H7.32845V185.791H2.37226V188.599H6.89748V189.679H2.37226V193.784H1.07935V184.71Z" fill="white"/>
<path d="M31.8926 184.71H33.1855V193.784H31.8926V184.71Z" fill="white"/>
<path d="M57.9658 184.71H59.4742L63.9994 192.056V184.71H65.0769V193.784H63.7839L59.2587 186.439V193.784H58.1813V184.71H57.9658Z" fill="white"/>
<path d="M92.6626 184.71H93.9555L97.1878 193.784H95.8949L95.033 190.976H91.5852L90.5078 193.784H89.2148L92.6626 184.71ZM94.602 190.112L93.3091 186.223L91.8007 190.112H94.602Z" fill="white"/>
<path d="M121.32 184.71H122.828L127.353 192.056V184.71H128.431V193.784H127.138L122.612 186.439V193.784H121.535V184.71H121.32Z" fill="white"/>
<path d="M159.893 185.358C160.539 186.006 160.97 186.654 160.97 187.519H159.677C159.462 186.87 159.246 186.438 158.815 186.222C158.384 186.006 157.953 185.79 157.091 185.79C156.229 185.79 155.583 186.006 154.936 186.654C154.29 187.302 154.075 188.167 154.075 189.463C154.075 190.543 154.29 191.407 154.721 192.055C155.152 192.704 156.014 193.136 156.876 193.136C157.738 193.136 158.384 192.704 159.031 192.055C159.246 191.623 159.462 191.191 159.677 190.543H160.97C160.97 191.407 160.539 192.272 159.893 192.92C159.246 193.784 158.169 194 157.091 194C156.014 194 155.152 193.784 154.505 193.136C153.644 192.272 152.997 190.975 152.997 189.247C152.997 187.951 153.428 186.87 154.075 186.006C154.936 185.142 155.798 184.71 157.307 184.71C158.384 184.494 159.246 184.71 159.893 185.358Z" fill="white"/>
<path d="M185.536 184.71H192V185.791H186.613V188.599H191.569V189.679H186.613V192.704H192V193.784H185.32V184.71H185.536Z" fill="white"/>
</svg>
