<svg xmlns="http://www.w3.org/2000/svg" xmlns:xlink="http://www.w3.org/1999/xlink" width="65" zoomAndPan="magnify" viewBox="0 0 48.75 48.75" height="65" preserveAspectRatio="xMidYMid meet" version="1.0"><defs><clipPath id="4c30e31bfd"><path d="M 0 0 L 48.5 0 L 48.5 48.5 L 0 48.5 Z M 0 0 " clip-rule="nonzero"/></clipPath><clipPath id="a010bcaeed"><path d="M 7.3125 5.75 L 40.144531 5.75 L 40.144531 42.3125 L 7.3125 42.3125 Z M 7.3125 5.75 " clip-rule="nonzero"/></clipPath><clipPath id="ff494949b8"><path d="M 0 0 L 47.753906 0 L 47.753906 47.753906 L 0 47.753906 Z M 0 0 " clip-rule="nonzero"/></clipPath></defs><g clip-path="url(#4c30e31bfd)"><path fill="#ffffff" d="M 0 0 L 48.5 0 L 48.5 48.5 L 0 48.5 Z M 0 0 " fill-opacity="1" fill-rule="nonzero"/></g><path fill="#e54d25" d="M 26.707031 33.207031 C 26.707031 31.90625 25.398438 31.339844 24.480469 31.050781 L 24.480469 28.710938 C 24.835938 28.804688 25.140625 28.988281 25.332031 29.230469 C 25.535156 29.480469 25.902344 29.523438 26.15625 29.320312 C 26.410156 29.117188 26.449219 28.75 26.25 28.496094 C 25.835938 27.984375 25.203125 27.632812 24.480469 27.511719 L 24.480469 27.117188 C 24.480469 26.792969 24.21875 26.53125 23.894531 26.53125 C 23.574219 26.53125 23.3125 26.792969 23.3125 27.117188 L 23.3125 27.511719 C 22.039062 27.734375 21.085938 28.660156 21.085938 29.765625 C 21.085938 31.066406 22.394531 31.632812 23.3125 31.921875 L 23.3125 34.261719 C 22.957031 34.167969 22.652344 33.984375 22.460938 33.742188 C 22.257812 33.492188 21.886719 33.449219 21.636719 33.652344 C 21.382812 33.855469 21.34375 34.222656 21.542969 34.476562 C 21.953125 34.988281 22.589844 35.335938 23.3125 35.460938 L 23.3125 35.855469 C 23.3125 36.175781 23.574219 36.4375 23.894531 36.4375 C 24.21875 36.4375 24.480469 36.175781 24.480469 35.855469 L 24.480469 35.460938 C 25.753906 35.238281 26.707031 34.3125 26.707031 33.207031 Z M 22.257812 29.765625 C 22.257812 29.292969 22.699219 28.875 23.3125 28.710938 L 23.3125 30.679688 C 22.570312 30.398438 22.257812 30.117188 22.257812 29.765625 Z M 24.480469 34.261719 L 24.480469 32.292969 C 25.214844 32.574219 25.535156 32.859375 25.535156 33.207031 C 25.535156 33.679688 25.09375 34.09375 24.480469 34.261719 Z M 24.480469 34.261719 " fill-opacity="1" fill-rule="nonzero"/><path fill="#e54d25" d="M 27.484375 24.628906 C 27.484375 24.304688 27.222656 24.042969 26.898438 24.042969 L 20.894531 24.042969 C 20.570312 24.042969 20.308594 24.304688 20.308594 24.628906 C 20.308594 24.953125 20.570312 25.214844 20.894531 25.214844 L 26.898438 25.214844 C 27.222656 25.214844 27.484375 24.953125 27.484375 24.628906 Z M 27.484375 24.628906 " fill-opacity="1" fill-rule="nonzero"/><path fill="#e54d25" d="M 9.035156 26.863281 C 9.039062 26.863281 9.042969 26.863281 9.046875 26.863281 C 9.367188 26.863281 9.625 26.609375 9.632812 26.289062 C 9.632812 26.273438 9.671875 24.5625 10.480469 22.507812 C 11.542969 19.789062 13.378906 17.773438 15.929688 16.519531 C 16.21875 16.375 16.339844 16.027344 16.195312 15.734375 C 16.050781 15.445312 15.703125 15.324219 15.410156 15.46875 C 11.878906 17.207031 10.175781 20.046875 9.371094 22.125 C 8.5 24.367188 8.460938 26.191406 8.460938 26.269531 C 8.457031 26.59375 8.714844 26.859375 9.035156 26.863281 Z M 9.035156 26.863281 " fill-opacity="1" fill-rule="nonzero"/><g clip-path="url(#a010bcaeed)"><path fill="#e54d25" d="M 39.582031 30.234375 C 39.007812 29.585938 38.234375 29.324219 37.523438 29.53125 C 36.933594 29.707031 36.566406 30.277344 36.097656 31.003906 C 35.648438 31.699219 35.070312 32.59375 34.125 33.371094 C 34.035156 32.921875 33.820312 32.644531 33.683594 32.507812 C 33.40625 32.226562 33.039062 32.066406 32.632812 32.019531 C 32.84375 30.457031 32.609375 28.789062 31.9375 27.148438 C 31.195312 25.328125 29.933594 23.617188 28.273438 22.171875 C 30.136719 19.996094 29.40625 18.839844 29.121094 18.519531 C 28.515625 17.847656 27.410156 17.839844 26.265625 18.445312 C 26.21875 18.222656 26.15625 17.976562 26.074219 17.730469 C 25.671875 16.546875 25.027344 16.078125 24.480469 15.90625 L 24.480469 15.546875 C 25.71875 15.378906 28.710938 14.746094 30.402344 12.457031 C 31.601562 10.828125 31.890625 8.722656 31.261719 6.191406 C 31.199219 5.929688 30.964844 5.75 30.695312 5.75 C 30.621094 5.75 28.832031 5.757812 27.027344 6.683594 C 25.609375 7.40625 23.960938 8.824219 23.464844 11.542969 C 22.839844 10.816406 22.09375 10.304688 21.226562 10.015625 C 18.855469 9.226562 16.488281 10.421875 16.386719 10.472656 C 16.148438 10.59375 16.023438 10.867188 16.085938 11.128906 C 16.824219 14.226562 18.972656 15.273438 20.644531 15.609375 C 21.570312 15.769531 22.464844 15.820312 23.3125 15.707031 L 23.3125 15.910156 C 22.765625 16.078125 22.121094 16.546875 21.71875 17.730469 C 21.636719 17.976562 21.574219 18.222656 21.527344 18.445312 C 20.382812 17.839844 19.277344 17.847656 18.671875 18.519531 C 18.382812 18.839844 17.652344 20 19.519531 22.171875 C 17.859375 23.617188 16.597656 25.328125 15.851562 27.148438 C 15.183594 28.789062 14.949219 30.457031 15.160156 32.019531 C 14.753906 32.066406 14.386719 32.226562 14.109375 32.507812 C 13.972656 32.644531 13.757812 32.921875 13.664062 33.371094 C 12.722656 32.597656 12.144531 31.699219 11.695312 31.003906 C 11.226562 30.277344 10.859375 29.707031 10.269531 29.535156 C 9.558594 29.324219 8.785156 29.585938 8.207031 30.234375 C 7.515625 31.015625 7.316406 32.109375 7.707031 33.015625 C 7.996094 33.691406 10.585938 39.664062 12.050781 40.710938 C 13.515625 41.761719 15.515625 42.054688 17.292969 42.054688 C 18.34375 42.054688 19.316406 41.953125 20.054688 41.84375 C 20.921875 41.714844 21.574219 40.953125 21.574219 40.074219 L 21.574219 38.464844 C 22.304688 38.609375 23.082031 38.679688 23.894531 38.679688 C 24.710938 38.679688 25.488281 38.609375 26.21875 38.464844 L 26.21875 40.074219 C 26.21875 40.953125 26.871094 41.714844 27.738281 41.84375 C 28.476562 41.953125 29.449219 42.054688 30.5 42.054688 C 32.277344 42.054688 34.277344 41.761719 35.742188 40.710938 C 37.207031 39.664062 39.796875 33.691406 40.085938 33.015625 C 40.476562 32.109375 40.277344 31.015625 39.582031 30.234375 Z M 30.234375 6.945312 C 30.628906 8.90625 30.371094 10.523438 29.460938 11.757812 C 28.320312 13.304688 26.375 13.96875 25.105469 14.246094 C 25.863281 13.15625 27.1875 11.4375 28.828125 10.023438 C 29.074219 9.8125 29.101562 9.445312 28.890625 9.199219 C 28.679688 8.953125 28.308594 8.925781 28.0625 9.136719 C 26.542969 10.445312 25.304688 11.96875 24.484375 13.09375 C 24.585938 7.9375 28.800781 7.085938 30.234375 6.945312 Z M 17.355469 11.332031 C 18.054688 11.070312 19.492188 10.667969 20.863281 11.128906 C 21.886719 11.472656 22.710938 12.246094 23.3125 13.429688 L 23.3125 14.527344 C 22.035156 14.703125 18.488281 14.847656 17.355469 11.332031 Z M 19.542969 19.304688 C 19.769531 19.050781 20.621094 19.117188 21.621094 19.898438 C 21.792969 20.03125 22.027344 20.058594 22.226562 19.96875 C 22.425781 19.878906 22.554688 19.683594 22.566406 19.464844 C 22.566406 19.4375 22.734375 16.988281 23.894531 16.988281 C 25.050781 16.988281 25.226562 19.441406 25.226562 19.464844 C 25.238281 19.683594 25.367188 19.878906 25.566406 19.96875 C 25.765625 20.058594 26 20.03125 26.171875 19.898438 C 27.171875 19.117188 28.023438 19.050781 28.25 19.304688 C 28.464844 19.539062 28.34375 20.375 27.175781 21.644531 L 20.613281 21.644531 C 19.449219 20.375 19.328125 19.539062 19.542969 19.304688 Z M 20.402344 40.074219 C 20.402344 40.378906 20.179688 40.640625 19.882812 40.683594 C 18.421875 40.902344 14.804688 41.246094 12.730469 39.757812 C 11.828125 39.113281 9.832031 34.996094 8.785156 32.554688 C 8.542969 31.992188 8.761719 31.375 9.085938 31.011719 C 9.257812 30.816406 9.519531 30.632812 9.785156 30.632812 C 9.835938 30.632812 9.886719 30.640625 9.9375 30.65625 C 10.109375 30.707031 10.441406 31.222656 10.710938 31.636719 C 11.335938 32.605469 12.183594 33.921875 13.839844 34.925781 C 14.109375 35.65625 14.652344 36.566406 15.652344 37.679688 C 15.867188 37.917969 16.238281 37.9375 16.480469 37.722656 C 16.71875 37.507812 16.738281 37.136719 16.523438 36.894531 C 14.734375 34.910156 14.597656 33.675781 14.9375 33.332031 C 15.246094 33.023438 16.085938 33.152344 16.855469 33.835938 C 17.800781 34.679688 18.625 35.125 19.226562 35.449219 C 20.15625 35.949219 20.402344 36.082031 20.402344 36.960938 Z M 26.21875 36.960938 L 26.21875 37.269531 C 25.496094 37.425781 24.71875 37.507812 23.894531 37.507812 C 23.074219 37.507812 22.296875 37.425781 21.574219 37.269531 L 21.574219 36.960938 C 21.574219 35.382812 20.746094 34.9375 19.785156 34.417969 C 19.203125 34.101562 18.480469 33.710938 17.632812 32.960938 C 17.234375 32.605469 16.800781 32.347656 16.371094 32.191406 C 15.792969 29.058594 17.414062 25.429688 20.574219 22.816406 L 27.21875 22.816406 C 30.378906 25.429688 31.996094 29.058594 31.421875 32.191406 C 30.992188 32.347656 30.558594 32.605469 30.160156 32.960938 C 29.3125 33.710938 28.589844 34.101562 28.007812 34.417969 C 27.046875 34.9375 26.21875 35.382812 26.21875 36.960938 Z M 39.007812 32.554688 C 37.960938 34.996094 35.964844 39.113281 35.0625 39.757812 C 32.988281 41.246094 29.371094 40.902344 27.910156 40.683594 C 27.613281 40.640625 27.386719 40.378906 27.386719 40.074219 L 27.386719 36.960938 C 27.386719 36.082031 27.636719 35.949219 28.566406 35.449219 C 29.167969 35.125 29.992188 34.679688 30.9375 33.835938 C 31.449219 33.382812 31.988281 33.175781 32.386719 33.175781 C 32.585938 33.175781 32.75 33.226562 32.855469 33.332031 C 33.195312 33.675781 33.054688 34.910156 31.269531 36.894531 C 31.054688 37.136719 31.074219 37.507812 31.3125 37.722656 C 31.554688 37.9375 31.921875 37.917969 32.140625 37.679688 C 33.140625 36.566406 33.683594 35.65625 33.949219 34.925781 C 35.609375 33.921875 36.457031 32.605469 37.082031 31.636719 C 37.351562 31.222656 37.683594 30.707031 37.855469 30.65625 C 38.167969 30.5625 38.5 30.78125 38.707031 31.011719 C 39.03125 31.375 39.25 31.992188 39.007812 32.554688 Z M 39.007812 32.554688 " fill-opacity="1" fill-rule="nonzero"/></g><path fill="#e54d25" d="M 31.863281 16.519531 C 34.414062 17.773438 36.25 19.789062 37.3125 22.507812 C 38.117188 24.5625 38.160156 26.273438 38.160156 26.289062 C 38.164062 26.609375 38.425781 26.863281 38.746094 26.863281 C 38.75 26.863281 38.753906 26.863281 38.753906 26.863281 C 39.078125 26.859375 39.335938 26.59375 39.332031 26.269531 C 39.332031 26.191406 39.292969 24.367188 38.421875 22.125 C 37.617188 20.046875 35.914062 17.207031 32.382812 15.46875 C 32.089844 15.324219 31.742188 15.445312 31.597656 15.734375 C 31.453125 16.023438 31.574219 16.375 31.863281 16.519531 Z M 31.863281 16.519531 " fill-opacity="1" fill-rule="nonzero"/><g clip-path="url(#ff494949b8)"><path fill="#0f436a" d="M 23.902344 0 C 10.714844 0 0 10.714844 0 23.902344 C 0 37.089844 10.714844 47.800781 23.902344 47.800781 C 37.089844 47.800781 47.800781 37.089844 47.800781 23.902344 C 47.800781 10.714844 37.089844 0 23.902344 0 Z M 23.902344 1.039062 C 36.539062 1.039062 46.761719 11.261719 46.761719 23.902344 C 46.761719 36.539062 36.539062 46.761719 23.902344 46.761719 C 11.261719 46.761719 1.039062 36.539062 1.039062 23.902344 C 1.039062 11.261719 11.261719 1.039062 23.902344 1.039062 Z M 23.902344 1.039062 " fill-opacity="1" fill-rule="nonzero"/></g></svg>