<svg xmlns="http://www.w3.org/2000/svg" xmlns:xlink="http://www.w3.org/1999/xlink" width="65" zoomAndPan="magnify" viewBox="0 0 48.75 48.75" height="65" preserveAspectRatio="xMidYMid meet" version="1.0"><defs><clipPath id="4c9ae25725"><path d="M 0 0 L 48.5 0 L 48.5 48.5 L 0 48.5 Z M 0 0 " clip-rule="nonzero"/></clipPath><clipPath id="f760323724"><path d="M 16 8.90625 L 31 8.90625 L 31 28 L 16 28 Z M 16 8.90625 " clip-rule="nonzero"/></clipPath><clipPath id="138f5510fd"><path d="M 6.902344 19 L 21 19 L 21 40.992188 L 6.902344 40.992188 Z M 6.902344 19 " clip-rule="nonzero"/></clipPath><clipPath id="c63258e22c"><path d="M 25 19 L 38.988281 19 L 38.988281 40.992188 L 25 40.992188 Z M 25 19 " clip-rule="nonzero"/></clipPath><clipPath id="fbd33053c8"><path d="M 0 0 L 47.753906 0 L 47.753906 47.753906 L 0 47.753906 Z M 0 0 " clip-rule="nonzero"/></clipPath></defs><g clip-path="url(#4c9ae25725)"><path fill="#ffffff" d="M 0 0 L 48.5 0 L 48.5 48.5 L 0 48.5 Z M 0 0 " fill-opacity="1" fill-rule="nonzero"/></g><path fill="#e54d25" d="M 15.015625 16.441406 C 15.015625 16.589844 14.964844 16.71875 14.859375 16.824219 C 14.753906 16.925781 14.625 16.980469 14.476562 16.980469 C 14.328125 16.980469 14.203125 16.925781 14.097656 16.824219 C 13.992188 16.71875 13.9375 16.589844 13.9375 16.441406 C 13.9375 16.292969 13.992188 16.167969 14.097656 16.0625 C 14.203125 15.957031 14.328125 15.902344 14.476562 15.902344 C 14.625 15.902344 14.753906 15.957031 14.859375 16.0625 C 14.964844 16.167969 15.015625 16.292969 15.015625 16.441406 Z M 15.015625 16.441406 " fill-opacity="1" fill-rule="nonzero"/><path fill="#e54d25" d="M 31.511719 22.363281 C 31.511719 22.511719 31.457031 22.636719 31.351562 22.742188 C 31.246094 22.847656 31.121094 22.902344 30.972656 22.902344 C 30.824219 22.902344 30.695312 22.847656 30.589844 22.742188 C 30.484375 22.636719 30.433594 22.511719 30.433594 22.363281 C 30.433594 22.214844 30.484375 22.085938 30.589844 21.980469 C 30.695312 21.875 30.824219 21.824219 30.972656 21.824219 C 31.121094 21.824219 31.246094 21.875 31.351562 21.980469 C 31.457031 22.085938 31.511719 22.214844 31.511719 22.363281 Z M 31.511719 22.363281 " fill-opacity="1" fill-rule="nonzero"/><g clip-path="url(#f760323724)"><path fill="#e54d25" d="M 30.085938 10.519531 C 30.085938 10.308594 30.046875 10.101562 29.964844 9.902344 C 29.882812 9.707031 29.765625 9.53125 29.613281 9.378906 C 29.460938 9.226562 29.289062 9.113281 29.089844 9.03125 C 28.890625 8.949219 28.6875 8.90625 28.472656 8.90625 L 17.707031 8.90625 C 17.492188 8.90625 17.285156 8.945312 17.089844 9.027344 C 16.890625 9.109375 16.714844 9.226562 16.566406 9.378906 C 16.414062 9.53125 16.296875 9.707031 16.214844 9.902344 C 16.132812 10.101562 16.09375 10.308594 16.09375 10.519531 C 16.09375 10.734375 16.132812 10.941406 16.214844 11.140625 C 16.296875 11.335938 16.414062 11.511719 16.566406 11.664062 C 16.714844 11.8125 16.890625 11.929688 17.089844 12.011719 C 17.285156 12.09375 17.492188 12.136719 17.707031 12.136719 L 17.808594 12.136719 C 17.550781 12.589844 17.363281 13.070312 17.253906 13.582031 C 16.757812 15.910156 18.5 16.667969 19.773438 17.222656 C 20.742188 17.644531 21.203125 17.890625 21.203125 18.324219 C 21.203125 18.757812 20.746094 19.003906 19.773438 19.429688 C 18.503906 19.980469 16.757812 20.742188 17.253906 23.070312 C 17.363281 23.582031 17.550781 24.0625 17.808594 24.515625 L 17.707031 24.515625 C 17.492188 24.515625 17.285156 24.554688 17.089844 24.636719 C 16.890625 24.71875 16.714844 24.835938 16.566406 24.988281 C 16.414062 25.140625 16.296875 25.316406 16.214844 25.511719 C 16.132812 25.710938 16.09375 25.917969 16.09375 26.128906 C 16.09375 26.34375 16.132812 26.550781 16.214844 26.75 C 16.296875 26.945312 16.414062 27.121094 16.566406 27.273438 C 16.714844 27.421875 16.890625 27.539062 17.089844 27.621094 C 17.285156 27.703125 17.492188 27.746094 17.707031 27.746094 L 28.472656 27.746094 C 28.6875 27.746094 28.890625 27.703125 29.089844 27.621094 C 29.289062 27.539062 29.460938 27.421875 29.613281 27.273438 C 29.765625 27.121094 29.882812 26.945312 29.964844 26.75 C 30.046875 26.550781 30.085938 26.34375 30.085938 26.128906 C 30.085938 25.917969 30.046875 25.710938 29.964844 25.511719 C 29.882812 25.316406 29.765625 25.140625 29.613281 24.988281 C 29.460938 24.835938 29.289062 24.71875 29.089844 24.636719 C 28.890625 24.554688 28.6875 24.515625 28.472656 24.515625 L 28.371094 24.515625 C 28.628906 24.0625 28.816406 23.582031 28.925781 23.070312 C 29.421875 20.742188 27.675781 19.980469 26.40625 19.429688 C 25.433594 19.003906 24.976562 18.757812 24.976562 18.324219 C 24.976562 17.890625 25.4375 17.644531 26.40625 17.222656 C 27.679688 16.667969 29.421875 15.910156 28.925781 13.582031 C 28.816406 13.070312 28.628906 12.589844 28.371094 12.136719 L 28.472656 12.136719 C 28.6875 12.136719 28.890625 12.09375 29.089844 12.011719 C 29.289062 11.929688 29.460938 11.8125 29.613281 11.664062 C 29.765625 11.511719 29.882812 11.335938 29.964844 11.136719 C 30.046875 10.941406 30.085938 10.734375 30.085938 10.519531 Z M 28.472656 25.59375 C 28.621094 25.59375 28.746094 25.644531 28.851562 25.75 C 28.957031 25.855469 29.011719 25.980469 29.011719 26.128906 C 29.011719 26.277344 28.957031 26.40625 28.851562 26.511719 C 28.746094 26.617188 28.621094 26.667969 28.472656 26.667969 L 17.707031 26.667969 C 17.558594 26.667969 17.433594 26.617188 17.328125 26.511719 C 17.222656 26.40625 17.167969 26.277344 17.167969 26.128906 C 17.167969 25.980469 17.222656 25.855469 17.328125 25.75 C 17.433594 25.644531 17.558594 25.59375 17.707031 25.59375 Z M 25.980469 16.234375 C 25.003906 16.660156 23.902344 17.136719 23.902344 18.324219 C 23.898438 19.511719 25.003906 19.992188 25.976562 20.414062 C 27.34375 21.011719 28.171875 21.449219 27.875 22.847656 C 27.75 23.441406 27.421875 24.164062 27.019531 24.515625 L 19.160156 24.515625 C 18.757812 24.164062 18.429688 23.441406 18.304688 22.847656 C 18.007812 21.449219 18.832031 21.011719 20.203125 20.414062 C 21.175781 19.992188 22.28125 19.511719 22.277344 18.324219 C 22.277344 17.136719 21.175781 16.660156 20.199219 16.234375 C 18.832031 15.640625 18.007812 15.203125 18.304688 13.804688 C 18.425781 13.230469 18.742188 12.496094 19.160156 12.136719 L 27.019531 12.136719 C 27.4375 12.496094 27.753906 13.230469 27.875 13.804688 C 28.171875 15.203125 27.347656 15.640625 25.980469 16.234375 Z M 17.707031 11.058594 C 17.558594 11.058594 17.433594 11.007812 17.328125 10.902344 C 17.222656 10.796875 17.167969 10.667969 17.167969 10.519531 C 17.167969 10.371094 17.222656 10.246094 17.328125 10.140625 C 17.433594 10.035156 17.558594 9.984375 17.707031 9.984375 L 28.472656 9.984375 C 28.621094 9.984375 28.746094 10.035156 28.851562 10.140625 C 28.957031 10.246094 29.011719 10.371094 29.011719 10.519531 C 29.011719 10.667969 28.957031 10.796875 28.851562 10.902344 C 28.746094 11.007812 28.621094 11.058594 28.472656 11.058594 Z M 17.707031 11.058594 " fill-opacity="1" fill-rule="nonzero"/></g><path fill="#e54d25" d="M 13.671875 18.542969 C 13.703125 19.996094 14.058594 21.367188 14.730469 22.65625 C 14.796875 22.789062 14.902344 22.875 15.046875 22.921875 C 15.1875 22.964844 15.324219 22.953125 15.457031 22.886719 C 15.585938 22.816406 15.675781 22.710938 15.722656 22.570312 C 15.765625 22.429688 15.753906 22.292969 15.683594 22.160156 C 15.089844 21.019531 14.777344 19.804688 14.75 18.519531 C 14.742188 18.371094 14.683594 18.25 14.578125 18.148438 C 14.472656 18.046875 14.34375 17.996094 14.199219 17.992188 C 14.050781 17.996094 13.925781 18.054688 13.820312 18.160156 C 13.71875 18.269531 13.667969 18.394531 13.671875 18.542969 Z M 13.671875 18.542969 " fill-opacity="1" fill-rule="nonzero"/><path fill="#e54d25" d="M 32.230469 16.042969 C 32.191406 15.898438 32.109375 15.789062 31.984375 15.710938 C 31.855469 15.636719 31.71875 15.617188 31.574219 15.652344 C 31.433594 15.6875 31.320312 15.769531 31.246094 15.898438 C 31.167969 16.027344 31.148438 16.160156 31.183594 16.304688 C 31.507812 17.609375 31.519531 18.914062 31.214844 20.21875 C 31.179688 20.363281 31.203125 20.5 31.28125 20.625 C 31.359375 20.753906 31.46875 20.832031 31.613281 20.867188 C 31.757812 20.902344 31.894531 20.878906 32.023438 20.800781 C 32.148438 20.722656 32.226562 20.609375 32.261719 20.464844 C 32.605469 18.988281 32.597656 17.515625 32.230469 16.042969 Z M 32.230469 16.042969 " fill-opacity="1" fill-rule="nonzero"/><g clip-path="url(#138f5510fd)"><path fill="#e54d25" d="M 19.320312 36.367188 L 19.320312 34 C 19.324219 33.257812 19.0625 32.621094 18.535156 32.097656 L 12.511719 26.074219 C 12.046875 25.613281 11.320312 25.398438 10.710938 25.578125 L 10.710938 21.632812 C 10.710938 20.632812 9.964844 19.785156 9.019531 19.679688 C 7.933594 19.558594 6.921875 20.472656 6.941406 21.554688 L 6.941406 29.855469 C 6.941406 30.601562 7.203125 31.234375 7.730469 31.757812 L 11.25 35.277344 L 11.25 36.367188 C 10.945312 36.390625 10.691406 36.515625 10.484375 36.742188 C 10.277344 36.964844 10.171875 37.226562 10.171875 37.53125 L 10.171875 40.027344 C 10.171875 40.183594 10.203125 40.332031 10.261719 40.476562 C 10.320312 40.621094 10.40625 40.746094 10.515625 40.855469 C 10.625 40.96875 10.753906 41.050781 10.898438 41.113281 C 11.042969 41.171875 11.191406 41.203125 11.347656 41.203125 L 19.222656 41.203125 C 19.378906 41.203125 19.527344 41.171875 19.671875 41.113281 C 19.816406 41.050781 19.945312 40.96875 20.054688 40.855469 C 20.164062 40.746094 20.25 40.621094 20.308594 40.476562 C 20.367188 40.332031 20.398438 40.183594 20.398438 40.027344 L 20.398438 37.53125 C 20.398438 37.226562 20.292969 36.964844 20.085938 36.738281 C 19.878906 36.515625 19.625 36.390625 19.320312 36.367188 Z M 8.492188 31 C 8.175781 30.683594 8.019531 30.300781 8.019531 29.855469 L 8.019531 21.554688 C 8.007812 21.089844 8.449219 20.699219 8.910156 20.75 C 9.316406 20.796875 9.632812 21.179688 9.632812 21.632812 L 9.632812 26.347656 C 9.171875 27.007812 9.101562 27.957031 9.84375 28.738281 L 12.074219 30.96875 C 12.179688 31.074219 12.308594 31.128906 12.457031 31.132812 C 12.609375 31.132812 12.738281 31.082031 12.84375 30.972656 C 12.949219 30.867188 13.003906 30.738281 13 30.589844 C 13 30.4375 12.945312 30.3125 12.835938 30.207031 L 10.617188 27.984375 C 10.207031 27.554688 10.359375 27.101562 10.617188 26.84375 C 10.773438 26.683594 10.960938 26.601562 11.1875 26.601562 C 11.410156 26.601562 11.601562 26.683594 11.757812 26.84375 L 17.773438 32.859375 C 18.085938 33.175781 18.242188 33.554688 18.246094 34 L 18.246094 36.355469 L 12.324219 36.355469 L 12.324219 35.054688 C 12.324219 34.90625 12.273438 34.777344 12.167969 34.675781 Z M 19.320312 40.027344 C 19.320312 40.09375 19.289062 40.125 19.222656 40.125 L 11.347656 40.125 C 11.28125 40.125 11.25 40.09375 11.25 40.027344 L 11.25 37.53125 C 11.25 37.464844 11.28125 37.433594 11.347656 37.433594 L 19.222656 37.433594 C 19.289062 37.433594 19.320312 37.464844 19.320312 37.53125 Z M 19.320312 40.027344 " fill-opacity="1" fill-rule="nonzero"/></g><g clip-path="url(#c63258e22c)"><path fill="#e54d25" d="M 25.78125 37.53125 L 25.78125 40.027344 C 25.78125 40.183594 25.8125 40.332031 25.871094 40.476562 C 25.929688 40.621094 26.015625 40.746094 26.125 40.855469 C 26.234375 40.96875 26.363281 41.050781 26.507812 41.113281 C 26.652344 41.171875 26.800781 41.203125 26.957031 41.203125 L 34.832031 41.203125 C 34.988281 41.203125 35.136719 41.171875 35.28125 41.113281 C 35.425781 41.050781 35.554688 40.96875 35.664062 40.855469 C 35.773438 40.746094 35.859375 40.621094 35.917969 40.476562 C 35.976562 40.332031 36.007812 40.183594 36.007812 40.027344 L 36.007812 37.53125 C 36.007812 37.226562 35.902344 36.964844 35.695312 36.738281 C 35.488281 36.515625 35.234375 36.390625 34.929688 36.367188 L 34.929688 35.277344 L 38.449219 31.757812 C 38.976562 31.234375 39.238281 30.601562 39.238281 29.855469 L 39.238281 21.554688 C 39.257812 20.472656 38.246094 19.558594 37.160156 19.679688 C 36.214844 19.785156 35.46875 20.632812 35.46875 21.632812 L 35.46875 25.578125 C 34.859375 25.398438 34.132812 25.613281 33.667969 26.074219 L 27.644531 32.097656 C 27.117188 32.621094 26.855469 33.257812 26.859375 34 L 26.859375 36.367188 C 26.554688 36.390625 26.300781 36.515625 26.09375 36.738281 C 25.886719 36.964844 25.78125 37.226562 25.78125 37.53125 Z M 34.011719 34.675781 C 33.90625 34.777344 33.855469 34.90625 33.855469 35.054688 L 33.855469 36.355469 L 27.933594 36.355469 L 27.933594 34 C 27.933594 33.554688 28.09375 33.175781 28.40625 32.859375 L 34.421875 26.84375 C 34.578125 26.683594 34.769531 26.601562 34.992188 26.601562 C 35.21875 26.601562 35.40625 26.683594 35.5625 26.84375 C 35.820312 27.101562 35.972656 27.554688 35.5625 27.984375 L 33.34375 30.207031 C 33.238281 30.3125 33.1875 30.4375 33.1875 30.585938 C 33.1875 30.734375 33.238281 30.859375 33.34375 30.964844 C 33.449219 31.070312 33.574219 31.121094 33.722656 31.125 C 33.871094 31.125 34 31.070312 34.105469 30.96875 L 36.335938 28.738281 C 37.078125 27.957031 37.007812 27.007812 36.546875 26.347656 L 36.546875 21.632812 C 36.546875 21.179688 36.863281 20.796875 37.269531 20.75 C 37.730469 20.699219 38.171875 21.089844 38.160156 21.554688 L 38.160156 29.855469 C 38.160156 30.300781 38.003906 30.683594 37.6875 31 Z M 26.859375 37.53125 C 26.859375 37.464844 26.890625 37.433594 26.957031 37.433594 L 34.832031 37.433594 C 34.898438 37.433594 34.929688 37.464844 34.929688 37.53125 L 34.929688 40.027344 C 34.929688 40.09375 34.898438 40.125 34.832031 40.125 L 26.957031 40.125 C 26.890625 40.125 26.859375 40.09375 26.859375 40.027344 Z M 26.859375 37.53125 " fill-opacity="1" fill-rule="nonzero"/></g><g clip-path="url(#fbd33053c8)"><path fill="#0f436a" d="M 23.902344 0 C 10.714844 0 0 10.714844 0 23.902344 C 0 37.089844 10.714844 47.800781 23.902344 47.800781 C 37.089844 47.800781 47.800781 37.089844 47.800781 23.902344 C 47.800781 10.714844 37.089844 0 23.902344 0 Z M 23.902344 1.039062 C 36.539062 1.039062 46.761719 11.261719 46.761719 23.902344 C 46.761719 36.539062 36.539062 46.761719 23.902344 46.761719 C 11.261719 46.761719 1.039062 36.539062 1.039062 23.902344 C 1.039062 11.261719 11.261719 1.039062 23.902344 1.039062 Z M 23.902344 1.039062 " fill-opacity="1" fill-rule="nonzero"/></g></svg>