<svg xmlns="http://www.w3.org/2000/svg" xmlns:xlink="http://www.w3.org/1999/xlink" width="65" zoomAndPan="magnify" viewBox="0 0 48.75 48.75" height="65" preserveAspectRatio="xMidYMid meet" version="1.0"><defs><clipPath id="e654f67af3"><path d="M 0 0 L 48.5 0 L 48.5 48.5 L 0 48.5 Z M 0 0 " clip-rule="nonzero"/></clipPath><clipPath id="d95b8f590a"><path d="M 9.191406 7.417969 L 38 7.417969 L 38 42.488281 L 9.191406 42.488281 Z M 9.191406 7.417969 " clip-rule="nonzero"/></clipPath><clipPath id="38c18e5142"><path d="M 0 0 L 47.753906 0 L 47.753906 47.753906 L 0 47.753906 Z M 0 0 " clip-rule="nonzero"/></clipPath></defs><g clip-path="url(#e654f67af3)"><path fill="#ffffff" d="M 0 0 L 48.5 0 L 48.5 48.5 L 0 48.5 Z M 0 0 " fill-opacity="1" fill-rule="nonzero"/></g><g clip-path="url(#d95b8f590a)"><path fill="#e54d25" d="M 18.386719 29.554688 L 18.386719 22.980469 C 18.386719 22.941406 18.351562 22.90625 18.3125 22.90625 L 16.722656 22.90625 C 16.679688 22.90625 16.644531 22.941406 16.644531 22.980469 L 16.644531 29.554688 C 16.644531 29.597656 16.679688 29.632812 16.722656 29.632812 L 18.3125 29.632812 C 18.351562 29.632812 18.386719 29.597656 18.386719 29.554688 Z M 14 14.875 C 11.234375 18.339844 10.480469 23.023438 12.035156 27.195312 C 12.046875 27.226562 12.074219 27.246094 12.109375 27.242188 C 12.144531 27.242188 12.171875 27.21875 12.179688 27.1875 L 12.441406 26.191406 C 12.519531 25.890625 12.832031 25.707031 13.136719 25.789062 C 13.441406 25.867188 13.621094 26.179688 13.542969 26.484375 L 12.820312 29.226562 C 12.726562 29.589844 12.304688 29.777344 11.957031 29.554688 C 11.957031 29.554688 11.957031 29.554688 11.953125 29.554688 L 9.546875 28.109375 C 9.277344 27.949219 9.191406 27.597656 9.351562 27.328125 C 9.511719 27.058594 9.863281 26.972656 10.132812 27.132812 L 10.804688 27.539062 C 10.832031 27.554688 10.867188 27.550781 10.890625 27.53125 C 10.917969 27.511719 10.925781 27.476562 10.914062 27.445312 C 10.378906 25.957031 10.097656 24.375 10.097656 22.761719 C 10.097656 16.261719 14.640625 10.710938 20.871094 9.273438 C 21.175781 9.203125 21.480469 9.398438 21.550781 9.703125 C 21.621094 10.007812 21.429688 10.316406 21.125 10.386719 C 18.265625 11.046875 15.769531 12.660156 14 14.875 Z M 23.535156 9.921875 L 25.59375 11.867188 C 25.824219 12.082031 26.183594 12.074219 26.398438 11.84375 C 26.613281 11.613281 26.605469 11.253906 26.375 11.039062 L 25.640625 10.34375 C 25.613281 10.320312 25.609375 10.285156 25.621094 10.253906 C 25.636719 10.226562 25.667969 10.207031 25.703125 10.214844 C 31.886719 11.125 36.605469 16.382812 36.605469 22.761719 C 36.605469 24.894531 36.078125 26.964844 35.078125 28.808594 C 34.925781 29.085938 35.027344 29.429688 35.304688 29.582031 C 35.578125 29.730469 35.925781 29.628906 36.074219 29.351562 C 38.988281 23.996094 38.035156 17.347656 33.714844 13.027344 C 31.675781 10.988281 28.992188 9.578125 25.992188 9.109375 C 25.960938 9.101562 25.9375 9.078125 25.929688 9.046875 C 25.925781 9.015625 25.9375 8.984375 25.96875 8.96875 L 26.65625 8.5625 C 26.929688 8.402344 27.019531 8.054688 26.859375 7.785156 C 26.703125 7.515625 26.355469 7.421875 26.082031 7.582031 L 23.664062 9 C 23.292969 9.203125 23.261719 9.664062 23.535156 9.921875 Z M 14.324219 21.765625 L 33.527344 21.761719 C 33.566406 21.761719 33.601562 21.726562 33.601562 21.6875 L 33.601562 20.746094 C 33.601562 20.535156 33.515625 20.367188 33.34375 20.253906 L 24.421875 14.386719 C 24.113281 14.183594 23.734375 14.183594 23.425781 14.386719 L 14.503906 20.253906 C 14.332031 20.367188 14.242188 20.535156 14.242188 20.746094 L 14.25 21.6875 C 14.25 21.730469 14.28125 21.765625 14.324219 21.765625 Z M 25.191406 19.644531 C 24.0625 20.773438 22.128906 19.96875 22.128906 18.375 C 22.128906 16.785156 24.0625 15.980469 25.191406 17.109375 C 25.890625 17.808594 25.890625 18.945312 25.191406 19.644531 Z M 29.457031 22.980469 C 29.457031 22.941406 29.492188 22.90625 29.535156 22.90625 L 31.125 22.90625 C 31.167969 22.90625 31.199219 22.941406 31.199219 22.980469 L 31.199219 29.554688 C 31.199219 29.597656 31.167969 29.632812 31.125 29.632812 L 29.535156 29.632812 C 29.492188 29.632812 29.457031 29.597656 29.457031 29.554688 Z M 23.050781 22.980469 C 23.050781 22.941406 23.085938 22.90625 23.128906 22.90625 L 24.71875 22.90625 C 24.761719 22.90625 24.792969 22.941406 24.792969 22.980469 L 24.792969 29.554688 C 24.792969 29.597656 24.761719 29.632812 24.71875 29.632812 L 23.128906 29.632812 C 23.085938 29.632812 23.050781 29.597656 23.050781 29.554688 Z M 22.113281 34.917969 C 21.117188 35.917969 21.117188 37.539062 22.113281 38.535156 C 23.113281 39.535156 24.734375 39.535156 25.730469 38.535156 C 26.730469 37.539062 26.730469 35.917969 25.730469 34.917969 C 24.734375 33.921875 23.113281 33.921875 22.113281 34.917969 Z M 12.097656 31.507812 C 12.097656 31.105469 12.425781 30.773438 12.832031 30.773438 L 35.015625 30.773438 C 35.417969 30.773438 35.75 31.105469 35.75 31.507812 L 35.75 41.949219 C 35.75 42.351562 35.417969 42.683594 35.015625 42.683594 L 12.832031 42.683594 C 12.425781 42.683594 12.097656 42.351562 12.097656 41.949219 Z M 31.964844 32.78125 C 32.203125 33.675781 32.90625 34.378906 33.796875 34.617188 C 33.832031 34.625 33.855469 34.65625 33.855469 34.6875 L 33.855469 38.765625 C 33.855469 38.800781 33.832031 38.832031 33.796875 38.839844 C 32.90625 39.078125 32.203125 39.78125 31.964844 40.671875 C 31.957031 40.707031 31.925781 40.730469 31.890625 40.730469 L 15.953125 40.730469 C 15.917969 40.730469 15.890625 40.707031 15.882812 40.671875 C 15.644531 39.78125 14.941406 39.078125 14.046875 38.839844 C 14.015625 38.832031 13.992188 38.800781 13.992188 38.765625 L 13.992188 34.6875 C 13.992188 34.65625 14.015625 34.625 14.046875 34.617188 C 14.941406 34.378906 15.644531 33.675781 15.882812 32.78125 C 15.890625 32.75 15.917969 32.726562 15.953125 32.726562 L 31.890625 32.726562 C 31.925781 32.726562 31.957031 32.75 31.964844 32.78125 Z M 31.964844 32.78125 " fill-opacity="1" fill-rule="evenodd"/></g><g clip-path="url(#38c18e5142)"><path fill="#0f436a" d="M 23.902344 0 C 10.714844 0 0 10.714844 0 23.902344 C 0 37.089844 10.714844 47.800781 23.902344 47.800781 C 37.089844 47.800781 47.800781 37.089844 47.800781 23.902344 C 47.800781 10.714844 37.089844 0 23.902344 0 Z M 23.902344 1.039062 C 36.539062 1.039062 46.761719 11.261719 46.761719 23.902344 C 46.761719 36.539062 36.539062 46.761719 23.902344 46.761719 C 11.261719 46.761719 1.039062 36.539062 1.039062 23.902344 C 1.039062 11.261719 11.261719 1.039062 23.902344 1.039062 Z M 23.902344 1.039062 " fill-opacity="1" fill-rule="nonzero"/></g></svg>