<svg width="246" height="70" viewBox="0 0 246 70" fill="none" xmlns="http://www.w3.org/2000/svg">
  <path d="M32.641.402H1.991C.994.402 0 1.207 0 2.414v49.08c0 1.006.796 2.012 1.99 2.012h20.9V18.908c0-1.006.796-2.011 1.99-2.011h9.951V2.414c-.2-1.207-1.195-2.012-2.19-2.012m-.398 9.454c0 1.207-.995 2.213-2.19 2.213h-2.786c-1.194 0-2.19-1.006-2.19-2.213V7.644c0-1.207.996-2.213 2.19-2.213h2.787c1.194 0 2.189 1.006 2.189 2.213z" fill="#0C5080"/>
  <path d="M55.328 16.897H34.63v34.396c0 1.006-.796 2.012-1.99 2.012h-9.952v14.684c0 1.005.796 2.011 1.99 2.011h30.651c.995 0 1.99-.805 1.99-2.011V18.908c0-1.006-.796-2.012-1.99-2.012M32.241 62.759c0 1.206-.995 2.212-2.19 2.212h-2.786c-1.194 0-2.19-1.006-2.19-2.212v-2.213c0-1.207.996-2.213 2.19-2.213h2.786c1.195 0 2.19 1.006 2.19 2.213z" fill="#0C5080"/>
  <path d="M77.42 2.615V5.23c0 1.408-1.195 2.615-2.588 2.615H71.45c-1.394 0-2.588-1.207-2.588-2.615V2.615C68.861 1.207 70.055 0 71.45 0h3.383c1.393 0 2.588 1.207 2.588 2.615m0 9.454v30.977c0 1.207-.996 2.213-2.19 2.213h-4.379c-1.194 0-2.189-1.006-2.189-2.213V14.081c0-1.207.995-2.012 2.19-2.012z" fill="#E54C25"/>
  <path d="M88.37.202h32.441v3.62H106.68V45.26h-4.18V3.822H88.37zm47.169 45.057h-3.781V12.874h3.781v6.034h.199c.995-2.614 2.389-4.425 3.981-5.43 1.592-1.006 3.782-1.409 6.568-1.409v4.023c-2.189 0-3.782.202-5.175 1.006-1.393.805-2.388 1.61-3.184 2.816-.796 1.207-1.394 2.615-1.593 4.224-.199 1.61-.398 3.42-.398 5.23V45.26zm43.986-32.387h3.782v32.385h-3.782v-4.425c-.398.603-.995 1.207-1.592 1.81-.597.604-1.393 1.207-2.189 1.81-.796.604-1.791 1.006-2.787 1.409-.995.402-2.388.603-3.781.603-2.19 0-3.981-.402-5.374-.804-1.393-.604-2.587-1.409-3.583-2.615-.796-1.006-1.592-2.414-1.99-3.822s-.597-3.018-.597-4.627V12.872h3.782v21.322c0 2.816.597 4.828 1.99 6.437 1.194 1.408 3.383 2.212 6.369 2.212a9.2 9.2 0 0 0 4.18-1.005c1.194-.604 2.189-1.408 2.985-2.615.796-1.006 1.393-2.414 1.99-3.822.398-1.408.597-3.219.597-5.029zm20.503 22.329c.597 2.816 1.592 4.828 3.184 5.833 1.593 1.207 3.583 1.81 6.369 1.81 1.393 0 2.588-.2 3.583-.402.995-.402 1.791-.804 2.388-1.408s1.194-1.206 1.393-1.81c.398-.805.398-1.408.398-2.213 0-1.609-.597-2.816-1.592-3.62s-2.189-1.408-3.781-1.81-3.185-.805-4.976-1.207c-1.791-.403-3.384-.805-4.976-1.409-1.592-.603-2.786-1.609-3.781-2.614-.996-1.207-1.593-2.817-1.593-5.03q0-3.922 2.986-6.637c1.99-1.81 4.776-2.615 8.359-2.615 3.384 0 6.369.804 8.359 2.414 2.19 1.609 3.384 4.224 3.981 7.845h-3.782c-.398-2.414-1.194-4.225-2.786-5.23s-3.583-1.61-5.772-1.61c-2.388 0-4.18.604-5.374 1.61-1.194 1.005-1.791 2.413-1.791 4.023 0 1.408.597 2.614 1.592 3.42.995.804 2.189 1.407 3.782 1.81 1.592.402 3.184 1.005 4.976 1.206 1.791.403 3.383 1.006 4.975 1.61 1.593.603 2.787 1.609 3.782 2.816s1.592 2.816 1.592 4.827c0 1.61-.398 2.816-.995 4.023s-1.592 2.213-2.786 3.017q-1.792 1.207-4.18 1.81c-1.592.403-3.384.604-5.175.604-1.99 0-3.582-.2-4.976-.804-1.393-.604-2.786-1.408-3.781-2.414s-1.792-2.213-2.389-3.42c-.597-1.408-.995-2.816-.995-4.224h3.782zm45.574 10.259c-.398 0-.995.201-1.791.402-.797.202-1.593.403-2.389.403-1.791 0-3.184-.403-4.179-1.408-.996-1.006-1.394-2.615-1.394-5.029V16.092h-4.577v-3.218h4.577V3.822h3.782v9.052h5.971v3.218h-5.971V40.23c0 .604.199 1.006.398 1.408.199.403.597.604.995.805s.995.201 1.791.201c.399 0 .996 0 1.593-.201.597 0 .995-.201 1.592-.402v3.42zM69.66 56.524h5.773v1.006h-4.578v2.615h4.18v1.005h-4.18v3.822H69.66zm28.461 0h1.194v8.448h-1.194zm24.084 0h1.393l4.18 6.839v-6.84h.995v8.45h-1.194l-4.18-6.84v6.84h-.995v-8.45zm32.042 0h1.195l2.985 8.448h-1.194l-.796-2.615h-3.185l-.995 2.615h-1.194zm1.792 5.029-1.194-3.621-1.394 3.62zm24.682-5.03h1.393l4.18 6.84v-6.84h.995v8.449h-1.194l-4.18-6.84v6.84h-.995v-8.449zm35.625.604c.597.604.995 1.207.995 2.012h-1.194c-.199-.604-.398-1.006-.796-1.207s-.796-.403-1.593-.403-1.393.202-1.99.805-.796 1.408-.796 2.615q0 1.508.597 2.414c.398.603 1.194 1.005 1.99 1.005.797 0 1.394-.402 1.991-1.005a10 10 0 0 0 .597-1.408h1.194c0 .804-.398 1.609-.995 2.212-.597.805-1.592 1.006-2.588 1.006-.995 0-1.791-.201-2.388-.805-.796-.804-1.393-2.011-1.393-3.62 0-1.207.398-2.213.995-3.017.796-.805 1.592-1.207 2.985-1.207q1.494-.302 2.389.603m23.683-.603H246v1.006h-4.976v2.615h4.578v1.005h-4.578v2.817H246v1.005h-6.17v-8.448z" fill="#040B12"/>
</svg>
