<svg width="250" height="250" viewBox="0 0 250 250" fill="none" xmlns="http://www.w3.org/2000/svg">
<g clip-path="url(#clip0_543_43551)">
<mask id="mask0_543_43551" style="mask-type:luminance" maskUnits="userSpaceOnUse" x="0" y="0" width="250" height="250">
<path d="M250 0H0V250H250V0Z" fill="white"/>
</mask>
<g mask="url(#mask0_543_43551)">
<path d="M140.249 191.08H91.2279C84.6374 191.08 79.2754 185.718 79.2754 179.127V70.8724C79.2754 64.2819 84.6374 58.9199 91.2279 58.9199H140.249C146.839 58.9199 152.201 64.2819 152.201 70.8724V179.127C152.201 185.718 146.839 191.08 140.249 191.08Z" fill="#0C5080"/>
<path d="M91.2279 63.4199C87.1189 63.4199 83.7754 66.7634 83.7754 70.8724V179.127C83.7754 183.236 87.1189 186.58 91.2279 186.58H140.249C144.358 186.58 147.701 183.236 147.701 179.127V70.8724C147.701 66.7634 144.358 63.4199 140.249 63.4199H91.2279Z" fill="#EDF7FD"/>
<path d="M122.723 69.7234H108.585C104.843 69.7234 101.781 66.6624 101.781 62.9204H129.526C129.526 66.6624 126.465 69.7234 122.723 69.7234Z" fill="#0C5080"/>
<path d="M188.825 152.774H117.104C114.903 152.774 113.119 150.99 113.119 148.79V104.961C113.119 102.76 114.903 100.976 117.104 100.976H188.825C191.025 100.976 192.809 102.76 192.809 104.961V148.79C192.809 150.99 191.025 152.774 188.825 152.774Z" fill="#0C5080"/>
<path d="M133.635 114.158C140.71 114.158 146.454 119.902 146.454 126.976C146.454 134.051 140.71 139.795 133.635 139.795C126.561 139.795 120.817 134.051 120.817 126.976C120.817 119.902 126.561 114.158 133.635 114.158Z" fill="#EDF7FD"/>
<path d="M133.686 120.059C136.129 120.059 138.112 122.042 138.112 124.484C138.112 126.926 136.129 128.909 133.686 128.909C131.244 128.909 129.261 126.926 129.261 124.484C129.261 122.042 131.244 120.059 133.686 120.059Z" fill="#E54C25"/>
<path d="M123.68 135.049C123.68 135.049 127.124 131.656 133.16 131.385C139.196 131.113 143.644 134.983 143.644 134.983C143.644 134.983 140.214 139.794 133.635 139.794C127.057 139.794 123.68 135.049 123.68 135.049Z" fill="#E54C25"/>
<path d="M172.497 121.737H159.679C158.672 121.737 157.848 120.913 157.848 119.906C157.848 118.899 158.672 118.075 159.679 118.075H172.497C173.504 118.075 174.328 118.899 174.328 119.906C174.328 120.913 173.504 121.737 172.497 121.737Z" fill="#EDF7FD"/>
<path d="M176.973 128.808H159.679C158.672 128.808 157.847 127.984 157.847 126.977C157.847 125.97 158.672 125.146 159.679 125.146H176.973C177.98 125.146 178.804 125.97 178.804 126.977C178.804 127.984 177.98 128.808 176.973 128.808Z" fill="#EDF7FD"/>
<path d="M183.416 135.878H159.679C158.672 135.878 157.847 135.054 157.847 134.047C157.847 133.04 158.672 132.216 159.679 132.216H183.416C184.423 132.216 185.247 133.04 185.247 134.047C185.247 135.054 184.423 135.878 183.416 135.878Z" fill="#EDF7FD"/>
<path d="M188.047 92.3467C194.95 92.3467 200.555 97.9514 200.555 104.854C200.555 111.758 194.95 117.362 188.047 117.362C181.144 117.362 175.54 111.758 175.54 104.854C175.54 97.9514 181.144 92.3467 188.047 92.3467Z" fill="#EDF7FD"/>
<path d="M182.594 105.105L186.062 108.574L193.501 101.135" stroke="#0C9F63" stroke-width="6.54793" stroke-linecap="round" stroke-linejoin="round"/>
</g>
</g>
<defs>
<clipPath id="clip0_543_43551">
<rect width="250" height="250" fill="white"/>
</clipPath>
</defs>
</svg>
