<svg width="192" height="195" viewBox="0 0 192 195" fill="none" xmlns="http://www.w3.org/2000/svg">
<path d="M101.054 4.96631H58.8724C57.5029 4.96631 56.1333 6.06193 56.1333 7.70536V74.5382C56.1333 75.9077 57.229 77.2772 58.8724 77.2772H87.6324V30.1656C87.6324 28.796 88.728 27.4265 90.3715 27.4265H104.067V7.70536C103.793 6.06193 102.423 4.96631 101.054 4.96631ZM100.506 17.8398C100.506 19.4833 99.1364 20.8528 97.493 20.8528H93.6583C92.0149 20.8528 90.6454 19.4833 90.6454 17.8398V14.8269C90.6454 13.1835 92.0149 11.8139 93.6583 11.8139H97.493C99.1364 11.8139 100.506 13.1835 100.506 14.8269V17.8398Z" fill="#0C5080"/>
<path d="M132.278 27.4268H103.792V74.2645C103.792 75.634 102.696 77.0036 101.053 77.0036H87.3575V96.9986C87.3575 98.3682 88.4531 99.7377 90.0965 99.7377H132.278C133.647 99.7377 135.017 98.6421 135.017 96.9986V30.1658C135.017 28.7963 133.921 27.4268 132.278 27.4268ZM100.505 89.8771C100.505 91.5205 99.1354 92.8901 97.4919 92.8901H93.6573C92.0138 92.8901 90.6443 91.5205 90.6443 89.8771V86.8642C90.6443 85.2207 92.0138 83.8512 93.6573 83.8512H97.4919C99.1354 83.8512 100.505 85.2207 100.505 86.8642V89.8771Z" fill="#0C5080"/>
<path d="M9.4814 127.441V130.25C9.4814 131.762 8.18848 133.059 6.68007 133.059H3.01681C1.50841 133.059 0.215483 131.762 0.215483 130.25V127.441C0.215483 125.929 1.50841 124.633 3.01681 124.633H6.68007C8.18848 124.633 9.4814 125.929 9.4814 127.441ZM9.4814 137.596V170.867C9.4814 172.163 8.40397 173.243 7.11105 173.243H2.37035C1.07743 173.243 0 172.163 0 170.867V139.756C0 138.46 1.07743 137.596 2.37035 137.596H9.4814Z" fill="#E54C25"/>
<path d="M21.3343 124.849H56.4586V128.737H41.159V173.243H36.6338V128.737H21.3343V124.849Z" fill="#040B12"/>
<path d="M72.4043 173.244H68.3101V138.46H72.4043V144.942H72.6198C73.6972 142.133 75.2057 140.189 76.9295 139.109C78.6534 138.028 81.0238 137.596 84.0406 137.596V141.917C81.6702 141.917 79.9464 142.133 78.438 142.997C76.9296 143.862 75.8521 144.726 74.9902 146.022C74.1282 147.318 73.4818 148.831 73.2663 150.559C73.0508 152.287 72.8353 154.232 72.8353 156.176V173.244H72.4043Z" fill="#040B12"/>
<path d="M120.027 138.459H124.122V173.242H120.027V168.489C119.596 169.137 118.95 169.786 118.303 170.434C117.657 171.082 116.795 171.73 115.933 172.378C115.071 173.026 113.994 173.458 112.916 173.89C111.839 174.323 110.33 174.539 108.822 174.539C106.452 174.539 104.512 174.106 103.004 173.674C101.496 173.026 100.203 172.162 99.1252 170.866C98.2632 169.786 97.4013 168.273 96.9703 166.761C96.5393 165.249 96.3239 163.52 96.3239 161.792V138.459H100.418V161.36C100.418 164.384 101.065 166.545 102.573 168.273C103.866 169.786 106.236 170.65 109.469 170.65C111.192 170.65 112.701 170.218 113.994 169.57C115.287 168.921 116.364 168.057 117.226 166.761C118.088 165.681 118.734 164.168 119.381 162.656C119.812 161.144 120.027 159.199 120.027 157.255V138.459Z" fill="#040B12"/>
<path d="M142.225 162.441C142.872 165.466 143.949 167.626 145.673 168.707C147.397 170.003 149.552 170.651 152.569 170.651C154.077 170.651 155.37 170.435 156.447 170.219C157.525 169.787 158.387 169.355 159.033 168.707C159.68 168.059 160.326 167.41 160.542 166.762C160.972 165.898 160.972 165.25 160.972 164.386C160.972 162.657 160.326 161.361 159.249 160.497C158.171 159.633 156.878 158.985 155.154 158.553C153.43 158.121 151.707 157.688 149.767 157.256C147.828 156.824 146.104 156.392 144.38 155.744C142.656 155.096 141.363 154.016 140.286 152.935C139.208 151.639 138.562 149.911 138.562 147.534C138.562 144.726 139.639 142.349 141.794 140.405C143.949 138.46 146.966 137.596 150.845 137.596C154.508 137.596 157.74 138.46 159.895 140.189C162.265 141.917 163.558 144.726 164.205 148.615H160.111C159.68 146.022 158.818 144.078 157.094 142.997C155.37 141.917 153.215 141.269 150.845 141.269C148.259 141.269 146.319 141.917 145.026 142.997C143.734 144.078 143.087 145.59 143.087 147.318C143.087 148.831 143.734 150.127 144.811 150.991C145.888 151.855 147.181 152.503 148.905 152.935C150.629 153.368 152.353 154.016 154.292 154.232C156.232 154.664 157.956 155.312 159.68 155.96C161.403 156.608 162.696 157.688 163.774 158.985C164.851 160.281 165.498 162.009 165.498 164.17C165.498 165.898 165.067 167.194 164.42 168.491C163.774 169.787 162.696 170.867 161.403 171.731C160.111 172.596 158.602 173.244 156.878 173.676C155.154 174.108 153.215 174.324 151.276 174.324C149.121 174.324 147.397 174.108 145.888 173.46C144.38 172.812 142.872 171.947 141.794 170.867C140.717 169.787 139.855 168.491 139.208 167.194C138.562 165.682 138.131 164.17 138.131 162.657H142.225V162.441Z" fill="#040B12"/>
<path d="M191.569 173.459C191.138 173.459 190.492 173.675 189.63 173.891C188.768 174.107 187.906 174.323 187.044 174.323C185.104 174.323 183.596 173.891 182.519 172.811C181.441 171.731 181.01 170.002 181.01 167.41V141.917H176.054V138.46H181.01V128.738H185.104V138.46H191.569V141.917H185.104V165.682C185.104 166.546 185.104 167.194 185.104 167.842C185.104 168.49 185.32 168.922 185.535 169.354C185.751 169.786 186.182 170.002 186.613 170.219C187.044 170.435 187.69 170.435 188.552 170.435C188.983 170.435 189.63 170.435 190.276 170.219C190.923 170.219 191.354 170.002 192 169.786V173.459H191.569Z" fill="#040B12"/>
<path d="M1.07894 185.343H7.32805V186.423H2.37186V189.232H6.89708V190.312H2.37186V194.417H1.07894V185.343Z" fill="#040B12"/>
<path d="M31.8925 185.343H33.1854V194.417H31.8925V185.343Z" fill="#040B12"/>
<path d="M57.9655 185.343H59.4739L63.9991 192.689V185.343H65.0765V194.417H63.7836L59.2584 187.072V194.417H58.181V185.343H57.9655Z" fill="#040B12"/>
<path d="M92.6618 185.343H93.9547L97.187 194.417H95.8941L95.0321 191.609H91.5843L90.5069 194.417H89.214L92.6618 185.343ZM94.6011 190.744L93.3082 186.856L91.7998 190.744H94.6011Z" fill="#040B12"/>
<path d="M121.319 185.343H122.828L127.353 192.689V185.343H128.43V194.417H127.137L122.612 187.072V194.417H121.535V185.343H121.319Z" fill="#040B12"/>
<path d="M159.892 185.991C160.539 186.639 160.97 187.287 160.97 188.151H159.677C159.461 187.503 159.246 187.071 158.815 186.855C158.384 186.639 157.953 186.423 157.091 186.423C156.229 186.423 155.583 186.639 154.936 187.287C154.29 187.935 154.074 188.799 154.074 190.096C154.074 191.176 154.29 192.04 154.721 192.688C155.152 193.336 156.014 193.769 156.876 193.769C157.737 193.769 158.384 193.336 159.03 192.688C159.246 192.256 159.461 191.824 159.677 191.176H160.97C160.97 192.04 160.539 192.904 159.892 193.552C159.246 194.417 158.168 194.633 157.091 194.633C156.014 194.633 155.152 194.417 154.505 193.769C153.643 192.904 152.997 191.608 152.997 189.88C152.997 188.583 153.428 187.503 154.074 186.639C154.936 185.775 155.798 185.343 157.306 185.343C158.384 185.127 159.246 185.343 159.892 185.991Z" fill="#040B12"/>
<path d="M185.535 185.343H192V186.423H186.613V189.232H191.569V190.312H186.613V193.337H192V194.417H185.32V185.343H185.535Z" fill="#040B12"/>
</svg>
