<svg width="192" height="70" viewBox="0 0 192 70" fill="none" xmlns="http://www.w3.org/2000/svg">
<path d="M9.4814 2.80859V5.61718C9.4814 7.1295 8.18848 8.42577 6.68007 8.42577H3.01681C1.50841 8.42577 0.215483 7.1295 0.215483 5.61718V2.80859C0.215483 1.29627 1.50841 0 3.01681 0H6.68007C8.18848 0 9.4814 1.29627 9.4814 2.80859ZM9.4814 12.9627V46.2337C9.4814 47.53 8.40397 48.6102 7.11105 48.6102H2.37035C1.07743 48.6102 0 47.53 0 46.2337V15.1232C0 13.8269 1.07743 12.9627 2.37035 12.9627H9.4814Z" fill="#E54C25"/>
<path d="M21.334 0.21582H56.4583V4.10464H41.1587V48.61H36.6335V4.10464H21.334V0.21582Z" fill="white"/>
<path d="M72.4048 48.6109H68.3105V13.8276H72.4048V20.3089H72.6203C73.6977 17.5003 75.2061 15.5559 76.93 14.4757C78.6539 13.3955 81.0242 12.9634 84.0411 12.9634V17.2843C81.6707 17.2843 79.9468 17.5003 78.4384 18.3645C76.93 19.2287 75.8526 20.0929 74.9906 21.3891C74.1287 22.6854 73.4822 24.1977 73.2667 25.9261C73.0513 27.6545 72.8358 29.5989 72.8358 31.5433V48.6109H72.4048Z" fill="white"/>
<path d="M120.028 13.8262H124.122V48.6095H120.028V43.8565C119.597 44.5046 118.95 45.1528 118.304 45.8009C117.657 46.449 116.795 47.0972 115.933 47.7453C115.072 48.3934 113.994 48.8255 112.917 49.2576C111.839 49.6897 110.331 49.9058 108.822 49.9058C106.452 49.9058 104.513 49.4737 103.004 49.0416C101.496 48.3934 100.203 47.5293 99.1255 46.233C98.2636 45.1528 97.4017 43.6404 96.9707 42.1281C96.5397 40.6158 96.3242 38.8874 96.3242 37.1591V13.8262H100.418V36.727C100.418 39.7516 101.065 41.9121 102.573 43.6404C103.866 45.1528 106.237 46.0169 109.469 46.0169C111.193 46.0169 112.701 45.5848 113.994 44.9367C115.287 44.2886 116.364 43.4244 117.226 42.1281C118.088 41.0479 118.735 39.5356 119.381 38.0233C119.812 36.5109 120.028 34.5665 120.028 32.6221V13.8262Z" fill="white"/>
<path d="M142.225 37.8086C142.872 40.8332 143.949 42.9937 145.673 44.0739C147.397 45.3702 149.552 46.0183 152.568 46.0183C154.077 46.0183 155.37 45.8023 156.447 45.5862C157.525 45.1541 158.387 44.722 159.033 44.0739C159.68 43.4258 160.326 42.7776 160.541 42.1295C160.972 41.2653 160.972 40.6172 160.972 39.753C160.972 38.0246 160.326 36.7284 159.249 35.8642C158.171 35 156.878 34.3519 155.154 33.9198C153.43 33.4877 151.707 33.0556 149.767 32.6235C147.828 32.1914 146.104 31.7593 144.38 31.1112C142.656 30.4631 141.363 29.3828 140.286 28.3026C139.208 27.0063 138.562 25.278 138.562 22.9015C138.562 20.0929 139.639 17.7164 141.794 15.772C143.949 13.8276 146.966 12.9634 150.845 12.9634C154.508 12.9634 157.74 13.8276 159.895 15.5559C162.265 17.2843 163.558 20.0929 164.205 23.9817H160.11C159.68 21.3891 158.818 19.4447 157.094 18.3645C155.37 17.2843 153.215 16.6361 150.845 16.6361C148.259 16.6361 146.319 17.2843 145.026 18.3645C143.734 19.4447 143.087 20.9571 143.087 22.6854C143.087 24.1977 143.734 25.494 144.811 26.3582C145.888 27.2224 147.181 27.8705 148.905 28.3026C150.629 28.7347 152.353 29.3828 154.292 29.5989C156.232 30.031 157.956 30.6791 159.679 31.3272C161.403 31.9754 162.696 33.0556 163.774 34.3519C164.851 35.6481 165.498 37.3765 165.498 39.537C165.498 41.2653 165.067 42.5616 164.42 43.8579C163.774 45.1541 162.696 46.2344 161.403 47.0985C160.11 47.9627 158.602 48.6109 156.878 49.043C155.154 49.475 153.215 49.6911 151.276 49.6911C149.121 49.6911 147.397 49.475 145.888 48.8269C144.38 48.1788 142.872 47.3146 141.794 46.2344C140.717 45.1541 139.855 43.8579 139.208 42.5616C138.562 41.0493 138.131 39.537 138.131 38.0246H142.225V37.8086Z" fill="white"/>
<path d="M191.569 48.8264C191.138 48.8264 190.491 49.0424 189.629 49.2585C188.767 49.4745 187.905 49.6906 187.044 49.6906C185.104 49.6906 183.596 49.2585 182.518 48.1782C181.441 47.098 181.01 45.3696 181.01 42.7771V17.2837H176.054V13.827H181.01V4.10498H185.104V13.827H191.569V17.2837H185.104V41.0487C185.104 41.9129 185.104 42.5611 185.104 43.2092C185.104 43.8573 185.32 44.2894 185.535 44.7215C185.751 45.1536 186.182 45.3696 186.613 45.5857C187.044 45.8017 187.69 45.8017 188.552 45.8017C188.983 45.8017 189.629 45.8017 190.276 45.5857C190.922 45.5857 191.353 45.3696 192 45.1536V48.8264H191.569Z" fill="white"/>
<path d="M1.0791 60.7104H7.32821V61.7907H2.37202V64.5993H6.89724V65.6795H2.37202V69.7844H1.0791V60.7104Z" fill="white"/>
<path d="M31.8926 60.7104H33.1855V69.7844H31.8926V60.7104Z" fill="white"/>
<path d="M57.9658 60.7104H59.4742L63.9994 68.056V60.7104H65.0769V69.7844H63.7839L59.2587 62.4388V69.7844H58.1813V60.7104H57.9658Z" fill="white"/>
<path d="M92.6626 60.7104H93.9555L97.1878 69.7844H95.8949L95.033 66.9758H91.5852L90.5078 69.7844H89.2148L92.6626 60.7104ZM94.602 66.1116L93.3091 62.2228L91.8007 66.1116H94.602Z" fill="white"/>
<path d="M121.319 60.7104H122.828L127.353 68.056V60.7104H128.43V69.7844H127.137L122.612 62.4388V69.7844H121.535V60.7104H121.319Z" fill="white"/>
<path d="M159.893 61.3581C160.539 62.0062 160.97 62.6543 160.97 63.5185H159.677C159.462 62.8704 159.246 62.4383 158.815 62.2222C158.384 62.0062 157.953 61.7902 157.091 61.7902C156.229 61.7902 155.583 62.0062 154.936 62.6543C154.29 63.3025 154.075 64.1666 154.075 65.4629C154.075 66.5431 154.29 67.4073 154.721 68.0555C155.152 68.7036 156.014 69.1357 156.876 69.1357C157.738 69.1357 158.384 68.7036 159.031 68.0555C159.246 67.6234 159.462 67.1913 159.677 66.5431H160.97C160.97 67.4073 160.539 68.2715 159.893 68.9196C159.246 69.7838 158.169 69.9999 157.091 69.9999C156.014 69.9999 155.152 69.7838 154.505 69.1357C153.644 68.2715 152.997 66.9752 152.997 65.2469C152.997 63.9506 153.428 62.8704 154.075 62.0062C154.936 61.142 155.798 60.7099 157.307 60.7099C158.384 60.4939 159.246 60.7099 159.893 61.3581Z" fill="white"/>
<path d="M185.536 60.7104H192V61.7907H186.613V64.5993H191.569V65.6795H186.613V68.7041H192V69.7844H185.32V60.7104H185.536Z" fill="white"/>
</svg>
