<svg width="84" height="24" viewBox="0 0 84 24" fill="none" xmlns="http://www.w3.org/2000/svg">
    <path d="M11.1457 0.137901H0.679617C0.339808 0.137901 0 0.413764 0 0.827557V17.6552C0 18 0.271847 18.3448 0.679617 18.3448H7.81559V6.48273C7.81559 6.13791 8.08744 5.79308 8.49521 5.79308H11.8933V0.827557C11.8253 0.413764 11.4855 0.137901 11.1457 0.137901ZM11.0098 3.37928C11.0098 3.79308 10.67 4.13791 10.2622 4.13791H9.31075C8.90298 4.13791 8.56317 3.79308 8.56317 3.37928V2.62066C8.56317 2.20687 8.90298 1.86204 9.31075 1.86204H10.2622C10.67 1.86204 11.0098 2.20687 11.0098 2.62066V3.37928Z" fill="white"/>
    <path d="M18.8927 5.79312H11.8246V17.5862C11.8246 17.9311 11.5528 18.2759 11.145 18.2759H7.74695V23.3104C7.74695 23.6552 8.01879 24 8.42656 24H18.8927C19.2325 24 19.5723 23.7242 19.5723 23.3104V6.48277C19.5723 6.13795 19.3004 5.79312 18.8927 5.79312ZM11.0091 21.5173C11.0091 21.9311 10.6693 22.2759 10.2615 22.2759H9.31007C8.9023 22.2759 8.56249 21.9311 8.56249 21.5173V20.7586C8.56249 20.3449 8.9023 20 9.31007 20H10.2615C10.6693 20 11.0091 20.3449 11.0091 20.7586V21.5173Z" fill="white"/>
    <path d="M26.4359 0.896552V1.7931C26.4359 2.27586 26.0282 2.68966 25.5524 2.68966H24.3971C23.9214 2.68966 23.5136 2.27586 23.5136 1.7931V0.896552C23.5136 0.413793 23.9214 0 24.3971 0H25.5524C26.0282 0 26.4359 0.413793 26.4359 0.896552ZM26.4359 4.13793V14.7586C26.4359 15.1724 26.0961 15.5173 25.6884 15.5173H24.1932C23.7854 15.5173 23.4456 15.1724 23.4456 14.7586V4.82759C23.4456 4.4138 23.7854 4.13793 24.1932 4.13793H26.4359Z" fill="#E54C25"/>
    <path d="M30.1748 0.0691032H41.2526V1.31048H36.4273V15.5174H35.0001V1.31048H30.1748V0.0691032Z" fill="white"/>
    <path d="M46.2817 15.5174H44.9904V4.41392H46.2817V6.48289H46.3497C46.6895 5.58633 47.1652 4.96564 47.7089 4.62082C48.2526 4.27599 49.0002 4.13806 49.9516 4.13806V5.51737C49.204 5.51737 48.6603 5.58634 48.1846 5.8622C47.7089 6.13806 47.3691 6.41392 47.0972 6.82772C46.8254 7.24151 46.6215 7.72427 46.5535 8.27599C46.4856 8.82772 46.4176 9.44841 46.4176 10.0691V15.5174H46.2817Z" fill="white"/>
    <path d="M61.3013 4.41335H62.5926V15.5168H61.3013V13.9996C61.1654 14.2065 60.9615 14.4134 60.7577 14.6203C60.5538 14.8271 60.2819 15.034 60.0101 15.2409C59.7382 15.4478 59.3984 15.5858 59.0586 15.7237C58.7188 15.8616 58.2431 15.9306 57.7673 15.9306C57.0198 15.9306 56.4081 15.7927 55.9324 15.6547C55.4566 15.4478 55.0489 15.172 54.7091 14.7582C54.4372 14.4134 54.1654 13.9306 54.0294 13.4478C53.8935 12.9651 53.8256 12.4134 53.8256 11.8616V4.41335H55.1168V11.7237C55.1168 12.6892 55.3207 13.3789 55.7965 13.9306C56.2042 14.4134 56.9518 14.6892 57.9712 14.6892C58.5149 14.6892 58.9907 14.5513 59.3984 14.3444C59.8062 14.1375 60.146 13.8616 60.4178 13.4478C60.6897 13.103 60.8936 12.6202 61.0975 12.1375C61.2334 11.6547 61.3013 11.034 61.3013 10.4134V4.41335Z" fill="white"/>
    <path d="M68.3022 12.069C68.5061 13.0345 68.8459 13.7242 69.3896 14.069C69.9332 14.4828 70.6129 14.6897 71.5643 14.6897C72.0401 14.6897 72.4478 14.6207 72.7876 14.5517C73.1274 14.4138 73.3993 14.2759 73.6032 14.069C73.8071 13.8621 74.0109 13.6552 74.0789 13.4483C74.2148 13.1724 74.2148 12.9655 74.2148 12.6897C74.2148 12.1379 74.0109 11.7242 73.6711 11.4483C73.3313 11.1724 72.9236 10.9655 72.3799 10.8276C71.8362 10.6897 71.2925 10.5517 70.6808 10.4138C70.0692 10.2759 69.5255 10.1379 68.9818 9.93105C68.4381 9.72415 68.0303 9.37933 67.6905 9.0345C67.3507 8.62071 67.1468 8.06898 67.1468 7.31036C67.1468 6.41381 67.4866 5.65519 68.1662 5.0345C68.8459 4.41381 69.7973 4.13794 71.0206 4.13794C72.176 4.13794 73.1954 4.41381 73.875 4.96553C74.6226 5.51725 75.0304 6.41381 75.2343 7.65519H73.943C73.8071 6.8276 73.5352 6.20691 72.9915 5.86208C72.4478 5.51725 71.7682 5.31036 71.0206 5.31036C70.2051 5.31036 69.5934 5.51725 69.1857 5.86208C68.7779 6.20691 68.574 6.68967 68.574 7.24139C68.574 7.72415 68.7779 8.13795 69.1177 8.41381C69.4575 8.68967 69.8653 8.89657 70.409 9.0345C70.9527 9.17243 71.4964 9.37933 72.108 9.44829C72.7197 9.58622 73.2634 9.79312 73.8071 10C74.3508 10.2069 74.7585 10.5517 75.0983 10.9655C75.4381 11.3793 75.642 11.9311 75.642 12.6207C75.642 13.1724 75.5061 13.5862 75.3022 14C75.0983 14.4138 74.7585 14.7586 74.3508 15.0345C73.943 15.3104 73.4673 15.5173 72.9236 15.6552C72.3799 15.7931 71.7682 15.8621 71.1566 15.8621C70.4769 15.8621 69.9332 15.7931 69.4575 15.5862C68.9818 15.3793 68.5061 15.1035 68.1662 14.7586C67.8264 14.4138 67.5546 14 67.3507 13.5862C67.1468 13.1035 67.0109 12.6207 67.0109 12.138H68.3022V12.069Z" fill="white"/>
    <path d="M83.8641 15.5863C83.7281 15.5863 83.5243 15.6553 83.2524 15.7242C82.9806 15.7932 82.7087 15.8622 82.4369 15.8622C81.8252 15.8622 81.3495 15.7242 81.0097 15.3794C80.6699 15.0346 80.5339 14.4829 80.5339 13.6553V5.51734H78.9708V4.41389H80.5339V1.31044H81.8252V4.41389H83.8641V5.51734H81.8252V13.1035C81.8252 13.3794 81.8252 13.5863 81.8252 13.7932C81.8252 14.0001 81.8932 14.138 81.9611 14.276C82.0291 14.4139 82.165 14.4829 82.3009 14.5518C82.4369 14.6208 82.6408 14.6208 82.9126 14.6208C83.0485 14.6208 83.2524 14.6208 83.4563 14.5518C83.6602 14.5518 83.7961 14.4829 84 14.4139V15.5863H83.8641Z" fill="white"/>
    <path d="M23.7867 19.3795H25.7576V19.7243H24.1945V20.6209H25.6217V20.9657H24.1945V22.2761H23.7867V19.3795Z" fill="white"/>
    <path d="M33.5048 19.3795H33.9126V22.276H33.5048V19.3795Z" fill="white"/>
    <path d="M41.7286 19.3796H42.2043L43.6315 21.7244V19.3796H43.9713V22.2762H43.5636L42.1364 19.9313V22.2762H41.7966V19.3796H41.7286Z" fill="white"/>
    <path d="M52.67 19.3796H53.0778L54.0972 22.2762H53.6895L53.4176 21.3796H52.3302L51.9904 22.2762H51.5826L52.67 19.3796ZM53.2817 21.1038L52.8739 19.8624L52.3982 21.1038H53.2817Z" fill="white"/>
    <path d="M61.7099 19.3795H62.1856L63.6128 21.7243V19.3795H63.9526V22.276H63.5448L62.1176 19.9312V22.276H61.7778V19.3795H61.7099Z" fill="white"/>
    <path d="M73.8744 19.5864C74.0783 19.7933 74.2142 20.0002 74.2142 20.276H73.8065C73.7385 20.0691 73.6705 19.9312 73.5346 19.8622C73.3987 19.7933 73.2628 19.7243 72.9909 19.7243C72.7191 19.7243 72.5152 19.7933 72.3113 20.0002C72.1074 20.207 72.0395 20.4829 72.0395 20.8967C72.0395 21.2415 72.1074 21.5174 72.2433 21.7243C72.3793 21.9312 72.6511 22.0691 72.923 22.0691C73.1948 22.0691 73.3987 21.9312 73.6026 21.7243C73.6705 21.5864 73.7385 21.4484 73.8065 21.2415H74.2142C74.2142 21.5174 74.0783 21.7933 73.8744 22.0002C73.6705 22.276 73.3307 22.345 72.9909 22.345C72.6511 22.345 72.3793 22.276 72.1754 22.0691C71.9035 21.7933 71.6996 21.3795 71.6996 20.8277C71.6996 20.4139 71.8356 20.0691 72.0395 19.7933C72.3113 19.5174 72.5831 19.3795 73.0589 19.3795C73.3987 19.3105 73.6705 19.3795 73.8744 19.5864Z" fill="white"/>
    <path d="M81.9612 19.3796H84V19.7245H82.301V20.621H83.8641V20.9658H82.301V21.9314H84V22.2762H81.8932V19.3796H81.9612Z" fill="white"/>
</svg>
