<svg width="120" height="120" viewBox="0 0 120 120" fill="none" xmlns="http://www.w3.org/2000/svg">
<path d="M65.8313 5H17.1604C15.5802 5 14 6.26418 14 8.16044V85.2752C14 86.8555 15.2642 88.4357 17.1604 88.4357H50.3451V34.0761C50.3451 32.4958 51.6093 30.9156 53.5055 30.9156H69.3077V8.16044C68.9917 6.26418 67.4115 5 65.8313 5ZM65.1992 19.8541C65.1992 21.7503 63.6189 23.3306 61.7227 23.3306H57.2981C55.4018 23.3306 53.8216 21.7503 53.8216 19.8541V16.3776C53.8216 14.4813 55.4018 12.9011 57.2981 12.9011H61.7227C63.6189 12.9011 65.1992 14.4813 65.1992 16.3776V19.8541Z" fill="#1A82CF"/>
<path d="M101.86 30.916H68.991V84.9596C68.991 86.5398 67.7268 88.12 65.8305 88.12H50.0283V111.191C50.0283 112.771 51.2925 114.352 53.1888 114.352H101.86C103.44 114.352 105.02 113.088 105.02 111.191V34.0765C105.02 32.4962 103.756 30.916 101.86 30.916ZM65.1984 102.974C65.1984 104.87 63.6182 106.451 61.722 106.451H57.2973C55.4011 106.451 53.8209 104.87 53.8209 102.974V99.4976C53.8209 97.6014 55.4011 96.0211 57.2973 96.0211H61.722C63.6182 96.0211 65.1984 97.6014 65.1984 99.4976V102.974Z" fill="#1A82CF"/>
</svg>
