<svg width="165" height="47" viewBox="0 0 165 47" fill="none" xmlns="http://www.w3.org/2000/svg">
    <g clip-path="url(#clip0_4940_3)">
        <path d="M21.85 0.270028H1.26999C0.933163 0.270028 0.610134 0.403831 0.371963 0.642002C0.133791 0.880173 -1.18056e-05 1.2032 -1.18056e-05 1.54003V34C-0.00401182 34.1693 0.0258825 34.3377 0.0879127 34.4953C0.149943 34.6528 0.242856 34.7964 0.361187 34.9175C0.479518 35.0386 0.620878 35.1349 0.77695 35.2006C0.933022 35.2663 1.10065 35.3001 1.26999 35.3H15.27V12.5C15.27 12.1606 15.4048 11.835 15.6449 11.5949C15.8849 11.3549 16.2105 11.22 16.55 11.22H23.17V1.54003C23.1701 1.36896 23.1357 1.19962 23.0688 1.04219C23.0018 0.884751 22.9038 0.74246 22.7805 0.623852C22.6572 0.505243 22.5113 0.412764 22.3514 0.351963C22.1915 0.291162 22.0209 0.263293 21.85 0.270028ZM21.53 6.49003C21.53 6.87459 21.3772 7.2434 21.1053 7.51533C20.8334 7.78726 20.4646 7.94003 20.08 7.94003H18.27C18.0787 7.94135 17.8891 7.90481 17.712 7.83254C17.5349 7.76026 17.3739 7.65366 17.2382 7.51888C17.1025 7.38411 16.9948 7.22382 16.9213 7.04724C16.8478 6.87066 16.81 6.68129 16.81 6.49003V5.00003C16.81 4.80877 16.8478 4.61939 16.9213 4.44282C16.9948 4.26624 17.1025 4.10595 17.2382 3.97117C17.3739 3.83639 17.5349 3.7298 17.712 3.65752C17.8891 3.58524 18.0787 3.54871 18.27 3.55003H20.08C20.2704 3.55003 20.459 3.58753 20.6349 3.6604C20.8108 3.73327 20.9706 3.84008 21.1053 3.97472C21.2399 4.10937 21.3467 4.26921 21.4196 4.44514C21.4925 4.62106 21.53 4.80961 21.53 5.00003V6.49003Z" fill="#114369"/>
        <path d="M37.07 11.22H23.12V34C23.12 34.3368 22.9862 34.6598 22.748 34.898C22.5098 35.1362 22.1868 35.27 21.85 35.27H15.22V45C15.22 45.1676 15.2531 45.3336 15.3176 45.4883C15.382 45.643 15.4765 45.7835 15.5955 45.9016C15.7145 46.0196 15.8557 46.1129 16.0109 46.1762C16.1661 46.2394 16.3324 46.2713 16.5 46.27H37.07C37.2376 46.2713 37.4038 46.2394 37.559 46.1762C37.7143 46.1129 37.8555 46.0196 37.9745 45.9016C38.0935 45.7835 38.1879 45.643 38.2524 45.4883C38.3168 45.3336 38.35 45.1676 38.35 45V12.5C38.35 12.1605 38.2151 11.8349 37.9751 11.5949C37.735 11.3548 37.4094 11.22 37.07 11.22ZM21.53 41.53C21.5326 41.7221 21.4971 41.9128 21.4254 42.091C21.3537 42.2692 21.2473 42.4315 21.1124 42.5682C20.9775 42.705 20.8168 42.8136 20.6395 42.8877C20.4623 42.9618 20.2721 43 20.08 43H18.27C18.0787 43.0013 17.8891 42.9648 17.712 42.8925C17.5349 42.8202 17.3739 42.7136 17.2382 42.5788C17.1025 42.4441 16.9948 42.2838 16.9213 42.1072C16.8478 41.9306 16.81 41.7412 16.81 41.55V40C16.81 39.8087 16.8478 39.6193 16.9213 39.4428C16.9948 39.2662 17.1025 39.1059 17.2382 38.9711C17.3739 38.8363 17.5349 38.7297 17.712 38.6575C17.8891 38.5852 18.0787 38.5486 18.27 38.55H20.08C20.2704 38.55 20.4589 38.5875 20.6349 38.6603C20.8108 38.7332 20.9706 38.84 21.1053 38.9747C21.2399 39.1093 21.3467 39.2692 21.4196 39.4451C21.4925 39.621 21.53 39.8096 21.53 40V41.53Z" fill="#114369"/>
        <path d="M51.84 1.77V3.55C51.84 3.78197 51.7942 4.01165 51.7051 4.22584C51.616 4.44003 51.4855 4.63449 51.321 4.79806C51.1565 4.96162 50.9613 5.09105 50.7466 5.17891C50.5319 5.26677 50.302 5.31132 50.07 5.31H47.77C47.538 5.31132 47.3081 5.26677 47.0934 5.17891C46.8787 5.09105 46.6835 4.96162 46.519 4.79806C46.3545 4.63449 46.224 4.44003 46.1349 4.22584C46.0459 4.01165 46 3.78197 46 3.55V1.77C46 1.53756 46.0458 1.3074 46.1348 1.09265C46.2237 0.877904 46.3541 0.682781 46.5184 0.518421C46.6828 0.354061 46.8779 0.223684 47.0927 0.134733C47.3074 0.0457824 47.5376 0 47.77 0L50.07 0C50.5394 0 50.9897 0.186482 51.3216 0.518421C51.6535 0.85036 51.84 1.30057 51.84 1.77ZM51.84 7.99V28.54C51.8454 28.7307 51.8123 28.9205 51.7427 29.098C51.6731 29.2756 51.5685 29.4374 51.435 29.5737C51.3016 29.7099 51.142 29.8179 50.9659 29.8911C50.7898 29.9644 50.6007 30.0014 50.41 30H47.41C47.221 29.9987 47.0341 29.9598 46.8603 29.8853C46.6865 29.8109 46.5294 29.7025 46.398 29.5665C46.2667 29.4305 46.1638 29.2696 46.0955 29.0934C46.0271 28.9171 45.9947 28.729 46 28.54V9.37C46 8.99247 46.1493 8.63025 46.4153 8.36236C46.6813 8.09446 47.0425 7.94264 47.42 7.94H51.79L51.84 8V7.99Z" fill="#E34C25"/>
        <path d="M59.11 0.169983H80.8V2.56998H71.36V30H68.55V2.56998H59.11V0.169983Z" fill="#231F20"/>
        <path d="M90.77 30H88.29V8.53H90.77V12.53H90.85C91.3479 11.1025 92.2819 9.86764 93.52 9C94.8403 8.27479 96.3353 7.92871 97.84 8V10.69C96.6464 10.6185 95.4539 10.8453 94.37 11.35C93.494 11.7889 92.7465 12.4468 92.2 13.26C91.649 14.0902 91.2683 15.0216 91.08 16C90.8685 17.1242 90.7647 18.2661 90.77 19.41V30Z" fill="#231F20"/>
        <path d="M120.19 8.53003H122.67V30H120.19V27C119.86 27.39 119.49 27.79 119.07 28.2C118.64 28.6349 118.16 29.0175 117.64 29.34C117.056 29.7145 116.423 30.0072 115.76 30.21C114.957 30.4592 114.12 30.5774 113.28 30.56C112.052 30.5971 110.829 30.3933 109.68 29.96C108.772 29.6082 107.968 29.0339 107.34 28.29C106.739 27.5546 106.302 26.6986 106.06 25.78C105.791 24.7621 105.66 23.7128 105.67 22.66V8.53003H108.15V22.6C108.048 24.1219 108.503 25.629 109.43 26.84C109.985 27.3753 110.65 27.7839 111.379 28.0377C112.107 28.2915 112.882 28.3844 113.65 28.31C114.601 28.3257 115.542 28.1203 116.4 27.71C117.188 27.3133 117.873 26.738 118.4 26.03C118.979 25.262 119.413 24.3943 119.68 23.47C119.997 22.4094 120.152 21.307 120.14 20.2L120.19 8.53003Z" fill="#231F20"/>
        <path d="M133.84 23.26C134.044 24.7721 134.786 26.1601 135.93 27.17C137.212 28.0078 138.731 28.4077 140.26 28.31C141.059 28.3263 141.856 28.2149 142.62 27.98C143.216 27.7925 143.77 27.4902 144.25 27.09C144.671 26.7473 145.012 26.3174 145.25 25.83C145.472 25.3646 145.588 24.8557 145.59 24.34C145.625 23.8982 145.552 23.4544 145.378 23.0469C145.204 22.6393 144.933 22.2801 144.59 22C143.81 21.4398 142.931 21.0326 142 20.8C140.91 20.4948 139.805 20.2445 138.69 20.05C137.555 19.8651 136.445 19.5531 135.38 19.12C134.4 18.7396 133.525 18.1292 132.83 17.34C132.105 16.4106 131.749 15.246 131.83 14.07C131.811 13.2335 131.982 12.4035 132.328 11.6418C132.674 10.88 133.188 10.2061 133.83 9.67001C135.406 8.46167 137.368 7.86809 139.35 8.00001C141.344 7.89578 143.32 8.42047 145 9.50001C145.778 10.1336 146.414 10.9243 146.865 11.8204C147.316 12.7164 147.574 13.6977 147.62 14.7H145.1C145.065 14.0138 144.879 13.3439 144.554 12.7386C144.228 12.1333 143.773 11.6078 143.22 11.2C142.043 10.49 140.683 10.1422 139.31 10.2C138.03 10.1047 136.757 10.4583 135.71 11.2C135.308 11.5161 134.986 11.9226 134.77 12.3866C134.555 12.8505 134.452 13.3588 134.47 13.87C134.444 14.292 134.521 14.7141 134.695 15.0993C134.87 15.4846 135.136 15.8213 135.47 16.08C136.235 16.6374 137.091 17.0571 138 17.32C139 17.64 140.13 17.92 141.31 18.17C142.449 18.4021 143.558 18.7575 144.62 19.23C145.595 19.6474 146.466 20.2758 147.17 21.07C147.891 21.9862 148.247 23.1368 148.17 24.3C148.188 25.2452 147.96 26.1789 147.51 27.01C147.07 27.8114 146.446 28.4969 145.69 29.01C144.868 29.5463 143.957 29.9323 143 30.15C141.853 30.4197 140.678 30.5506 139.5 30.54C138.343 30.5739 137.19 30.3907 136.1 30C135.19 29.6638 134.357 29.1467 133.653 28.4798C132.948 27.813 132.386 27.0102 132 26.12C131.615 25.2123 131.392 24.2445 131.34 23.26H133.84Z" fill="#231F20"/>
        <path d="M164.34 30.05C163.935 30.1266 163.535 30.2234 163.14 30.34C162.601 30.4771 162.046 30.5444 161.49 30.54C160.459 30.6086 159.441 30.2753 158.65 29.61C158.272 29.1485 157.989 28.6166 157.817 28.045C157.645 27.4735 157.589 26.8736 157.65 26.28V10.6H154.65V8.53003H157.65V2.53003H160.13V8.53003H164.13V10.6H160.13V25.29C160.13 25.81 160.13 26.29 160.13 26.65C160.138 26.9978 160.223 27.3395 160.38 27.65C160.524 27.8967 160.751 28.0845 161.02 28.18C161.414 28.3072 161.827 28.3647 162.24 28.35C162.575 28.3469 162.909 28.3202 163.24 28.27C163.58 28.21 163.92 28.14 164.24 28.06L164.34 30.05Z" fill="#231F20"/>
        <path d="M46.67 37.46H50.53V38.14H47.42V39.84H50.16V40.5H47.42V43H46.67V37.46Z" fill="#231F20"/>
        <path d="M65.68 37.46H66.45V43H65.68V37.46Z" fill="#231F20"/>
        <path d="M81.84 37.46H82.73L85.51 42V37.5H86.23V43H85.38L82.56 38.51V43H81.84V37.46Z" fill="#231F20"/>
        <path d="M103.24 37.46H104.09L106.09 43.03H105.26L104.69 41.36H102.49L101.89 43.03H101.11L103.24 37.46ZM104.48 40.75L103.64 38.29L102.74 40.75H104.48Z" fill="#231F20"/>
        <path d="M121 37.46H121.88L124.66 41.96V37.46H125.38V43H124.53L121.72 38.51V43H121V37.46Z" fill="#231F20"/>
        <path d="M144.7 37.87C145.06 38.1981 145.287 38.6461 145.34 39.13H144.6C144.538 38.7992 144.365 38.4994 144.11 38.28C143.823 38.0623 143.469 37.9525 143.11 37.97C142.864 37.9609 142.62 38.0074 142.395 38.1061C142.17 38.2048 141.97 38.3531 141.81 38.54C141.492 39.0427 141.319 39.6233 141.311 40.218C141.302 40.8126 141.457 41.3981 141.76 41.91C141.916 42.1135 142.12 42.2755 142.354 42.3818C142.588 42.4882 142.844 42.5356 143.1 42.52C143.344 42.5301 143.587 42.4764 143.805 42.3642C144.022 42.252 144.207 42.0851 144.34 41.88C144.513 41.6099 144.629 41.3069 144.68 40.99H145.42C145.37 41.5378 145.141 42.0541 144.77 42.46C144.547 42.7012 144.274 42.8907 143.97 43.0151C143.666 43.1395 143.338 43.1958 143.01 43.18C142.415 43.1947 141.836 42.984 141.39 42.59C140.879 41.9764 140.582 41.2129 140.544 40.4152C140.506 39.6176 140.729 38.8293 141.18 38.17C141.411 37.8873 141.705 37.6624 142.038 37.5132C142.372 37.3639 142.735 37.2943 143.1 37.31C143.686 37.2831 144.259 37.4837 144.7 37.87Z" fill="#231F20"/>
        <path d="M160.61 37.46H164.61V38.14H161.3V39.84H164.36V40.48H161.3V42.37H164.67V43H160.57L160.61 37.46Z" fill="#231F20"/>
    </g>
    <defs>
        <clipPath id="clip0_4940_3">
            <rect width="164.71" height="46.26" fill="white"/>
        </clipPath>
    </defs>
</svg>
