<svg width="246" height="70" viewBox="0 0 246 70" fill="none" xmlns="http://www.w3.org/2000/svg">
<path d="M32.641 0.402344H1.99031C0.995153 0.402344 0 1.20694 0 2.41384V51.4943C0 52.5001 0.796122 53.5058 1.99031 53.5058H22.8885V18.9081C22.8885 17.9024 23.6846 16.8966 24.8788 16.8966H34.8304V2.41384C34.6313 1.20694 33.6362 0.402344 32.641 0.402344ZM32.243 9.85638C32.243 11.0633 31.2478 12.069 30.0536 12.069H27.2672C26.073 12.069 25.0779 11.0633 25.0779 9.85638V7.64373C25.0779 6.43683 26.073 5.43108 27.2672 5.43108H30.0536C31.2478 5.43108 32.243 6.43683 32.243 7.64373V9.85638Z" fill="#1A82CF"/>
<path d="M55.3285 16.8965H34.6293V51.2931C34.6293 52.2988 33.8332 53.3046 32.639 53.3046H22.6875V67.9885C22.6875 68.9942 23.4836 70 24.6778 70H55.3285C56.3237 70 57.3188 69.1954 57.3188 67.9885V18.908C57.3188 17.9022 56.5227 16.8965 55.3285 16.8965ZM32.241 62.7586C32.241 63.9655 31.2458 64.9712 30.0516 64.9712H27.2652C26.071 64.9712 25.0759 63.9655 25.0759 62.7586V60.546C25.0759 59.3391 26.071 58.3333 27.2652 58.3333H30.0516C31.2458 58.3333 32.241 59.3391 32.241 60.546V62.7586Z" fill="#1A82CF"/>
<path d="M77.4195 2.61494V5.22989C77.4195 6.63794 76.2253 7.84483 74.8321 7.84483H71.4485C70.0553 7.84483 68.8611 6.63794 68.8611 5.22989V2.61494C68.8611 1.2069 70.0553 0 71.4485 0H74.8321C76.2253 0 77.4195 1.2069 77.4195 2.61494ZM77.4195 12.069V43.046C77.4195 44.2529 76.4243 45.2587 75.2301 45.2587H70.8514C69.6573 45.2587 68.6621 44.2529 68.6621 43.046V14.0805C68.6621 12.8736 69.6573 12.069 70.8514 12.069H77.4195Z" fill="#E54C25"/>
<path d="M88.3691 0.20166H120.811V3.82235H106.68V45.2592H102.5V3.82235H88.3691V0.20166Z" fill="white"/>
<path d="M135.539 45.259H131.758V12.8739H135.539V18.9084H135.738C136.734 16.2935 138.127 14.4831 139.719 13.4774C141.311 12.4716 143.501 12.0693 146.287 12.0693V16.0923C144.098 16.0923 142.505 16.2935 141.112 17.0981C139.719 17.9027 138.724 18.7073 137.928 19.9142C137.132 21.1211 136.535 22.5291 136.336 24.1383C136.136 25.7475 135.937 27.5579 135.937 29.3682V45.259H135.539Z" fill="white"/>
<path d="M179.525 12.8721H183.307V45.2572H179.525V40.8319C179.127 41.4353 178.53 42.0388 177.933 42.6422C177.336 43.2457 176.54 43.8491 175.744 44.4526C174.948 45.056 173.953 45.4583 172.957 45.8606C171.962 46.2629 170.569 46.4641 169.176 46.4641C166.987 46.4641 165.195 46.0618 163.802 45.6595C162.409 45.056 161.215 44.2514 160.219 43.0445C159.423 42.0388 158.627 40.6307 158.229 39.2227C157.831 37.8146 157.632 36.2054 157.632 34.5962V12.8721H161.414V34.1939C161.414 37.01 162.011 39.0215 163.404 40.6307C164.598 42.0388 166.788 42.8434 169.773 42.8434C171.365 42.8434 172.758 42.4411 173.953 41.8376C175.147 41.2342 176.142 40.4296 176.938 39.2227C177.734 38.2169 178.331 36.8089 178.928 35.4008C179.326 33.9928 179.525 32.1824 179.525 30.3721V12.8721Z" fill="white"/>
<path d="M200.028 35.201C200.625 38.0171 201.62 40.0286 203.212 41.0344C204.804 42.2413 206.795 42.8447 209.581 42.8447C210.974 42.8447 212.169 42.6436 213.164 42.4424C214.159 42.0401 214.955 41.6378 215.552 41.0344C216.149 40.4309 216.746 39.8275 216.945 39.224C217.343 38.4194 217.343 37.816 217.343 37.0114C217.343 35.4022 216.746 34.1953 215.751 33.3907C214.756 32.5861 213.562 31.9827 211.97 31.5804C210.377 31.1781 208.785 30.7758 206.994 30.3735C205.202 29.9712 203.61 29.5689 202.018 28.9654C200.426 28.362 199.232 27.3562 198.236 26.3505C197.241 25.1436 196.644 23.5344 196.644 21.3217C196.644 18.7068 197.639 16.4941 199.63 14.6838C201.62 12.8734 204.406 12.0688 207.989 12.0688C211.372 12.0688 214.358 12.8734 216.348 14.4826C218.538 16.0918 219.732 18.7068 220.329 22.3275H216.547C216.149 19.9137 215.353 18.1033 213.761 17.0976C212.169 16.0918 210.178 15.4884 207.989 15.4884C205.601 15.4884 203.809 16.0918 202.615 17.0976C201.421 18.1033 200.824 19.5114 200.824 21.1206C200.824 22.5286 201.421 23.7355 202.416 24.5401C203.411 25.3447 204.605 25.9482 206.198 26.3505C207.79 26.7528 209.382 27.3562 211.173 27.5574C212.965 27.9597 214.557 28.5631 216.149 29.1666C217.741 29.77 218.936 30.7758 219.931 31.9827C220.926 33.1896 221.523 34.7987 221.523 36.8102C221.523 38.4194 221.125 39.6263 220.528 40.8332C219.931 42.0401 218.936 43.0459 217.741 43.8505C216.547 44.6551 215.154 45.2585 213.562 45.6608C211.97 46.0631 210.178 46.2643 208.387 46.2643C206.397 46.2643 204.804 46.0631 203.411 45.4597C202.018 44.8562 200.625 44.0516 199.63 43.0459C198.634 42.0401 197.838 40.8332 197.241 39.6263C196.644 38.2183 196.246 36.8102 196.246 35.4022H200.028V35.201Z" fill="white"/>
<path d="M245.602 45.4602C245.204 45.4602 244.607 45.6614 243.811 45.8625C243.015 46.0637 242.218 46.2648 241.422 46.2648C239.631 46.2648 238.238 45.8625 237.243 44.8568C236.247 43.851 235.849 42.2418 235.849 39.828V16.0924H231.272V12.874H235.849V3.82227H239.631V12.874H245.602V16.0924H239.631V38.2188C239.631 39.0234 239.631 39.6269 239.631 40.2303C239.631 40.8338 239.83 41.2361 240.029 41.6384C240.228 42.0407 240.626 42.2418 241.024 42.443C241.422 42.6441 242.019 42.6441 242.816 42.6441C243.214 42.6441 243.811 42.6441 244.408 42.443C245.005 42.443 245.403 42.2418 246 42.0407V45.4602H245.602Z" fill="white"/>
<path d="M69.6611 56.5234H75.433V57.5292H70.8553V60.1441H75.035V61.1499H70.8553V64.9717H69.6611V56.5234Z" fill="white"/>
<path d="M98.1211 56.5234H99.3153V64.9717H98.1211V56.5234Z" fill="white"/>
<path d="M122.205 56.5239H123.598L127.778 63.363V56.5239H128.773V64.9722H127.579L123.399 58.1331V64.9722H122.404V56.5239H122.205Z" fill="white"/>
<path d="M154.248 56.5239H155.442L158.428 64.9722H157.233L156.437 62.3573H153.253L152.258 64.9722H151.063L154.248 56.5239ZM156.039 61.5527L154.845 57.932L153.452 61.5527H156.039Z" fill="white"/>
<path d="M180.722 56.5234H182.115L186.295 63.3625V56.5234H187.29V64.9717H186.095L181.916 58.1326V64.9717H180.921V56.5234H180.722Z" fill="white"/>
<path d="M216.347 57.1269C216.944 57.7303 217.342 58.3338 217.342 59.1384H216.147C215.948 58.5349 215.749 58.1326 215.351 57.9315C214.953 57.7303 214.555 57.5292 213.759 57.5292C212.963 57.5292 212.366 57.7303 211.769 58.3338C211.172 58.9372 210.973 59.7418 210.973 60.9487C210.973 61.9545 211.172 62.7591 211.57 63.3625C211.968 63.966 212.764 64.3683 213.56 64.3683C214.356 64.3683 214.953 63.966 215.55 63.3625C215.749 62.9602 215.948 62.5579 216.147 61.9545H217.342C217.342 62.7591 216.944 63.5637 216.347 64.1671C215.749 64.9717 214.754 65.1729 213.759 65.1729C212.764 65.1729 211.968 64.9717 211.371 64.3683C210.575 63.5637 209.978 62.3568 209.978 60.7476C209.978 59.5407 210.376 58.5349 210.973 57.7303C211.769 56.9257 212.565 56.5234 213.958 56.5234C214.953 56.3223 215.749 56.5234 216.347 57.1269Z" fill="white"/>
<path d="M240.029 56.5239H246V57.5297H241.024V60.1446H245.602V61.1504H241.024V63.9665H246V64.9722H239.83V56.5239H240.029Z" fill="white"/>
</svg>
