<svg width="32" height="32" viewBox="0 0 32 32" fill="none" xmlns="http://www.w3.org/2000/svg">
    <path fill-rule="evenodd" clip-rule="evenodd" d="M18.5849 6.95201H15.0249C14.7449 6.95201 14.5049 7.11201 14.5049 7.39201C14.4782 7.68535 14.7049 7.84535 15.0249 7.84535H18.6382C18.9182 7.84535 19.1582 7.72535 19.1582 7.43201C19.1582 7.07201 18.9182 6.95201 18.5982 6.95201H18.5849ZM20.8382 11.152C20.1049 10.4187 19.3982 9.64535 18.8249 8.73868C18.7182 8.53868 18.5715 8.45868 18.2915 8.45868H15.3715C15.1715 8.45868 15.0249 8.45868 14.9182 8.69868C14.2115 9.81868 13.2382 10.7387 12.4249 11.6987C10.5315 13.7653 9.63821 16.1253 9.59821 18.7787L16.0249 19.5253L19.1182 19.8587C19.9849 19.9253 20.7449 20.3787 21.2515 21.072L24.0649 18.312C23.8915 15.592 22.8782 13.2187 20.8382 11.1787V11.152ZM19.5315 3.65868C19.0249 3.39201 19.0515 4.00535 17.1982 3.80535C16.5982 3.77868 16.2515 3.33868 15.8515 3.03201C15.3182 2.61868 14.7049 2.55201 14.0382 2.84535C13.6649 3.03201 13.4915 3.25868 13.6915 3.69868C14.0649 4.55201 14.4915 5.40535 14.8782 6.21868C14.9582 6.41868 15.1182 6.47201 15.3182 6.47201H18.5049C18.7182 6.47201 18.8382 6.39201 18.9315 6.19201C19.1982 5.60535 19.4915 5.04535 19.7315 4.47201C19.8782 4.15201 19.9315 3.85868 19.5449 3.67201L19.5315 3.65868Z" fill="#0C5080"/>
    <path d="M22.4504 26.7002L21.1037 28.0335C20.637 28.5002 19.9837 28.7535 19.317 28.7269L8.67702 28.3535C8.42369 28.3535 8.17036 28.4069 7.94369 28.5402L6.07702 29.6202L1.33036 24.9269L5.86369 20.5402C6.23702 20.1802 6.75702 20.0069 7.26369 20.0735L15.837 21.1002L18.9704 21.4202C19.677 21.4735 20.2104 22.0602 20.2637 22.7002C20.317 22.9135 20.2637 23.1269 20.2104 23.3402C20.1704 23.4202 20.157 23.4469 20.1037 23.5535C20.0504 23.6602 19.997 23.7669 19.8904 23.8735C19.6237 24.1935 19.1837 24.3535 18.757 24.3535L11.6904 24.0335C11.477 24.0335 11.317 24.1935 11.317 24.3535C11.317 24.5669 11.477 24.7269 11.637 24.7269L18.7037 25.0469C19.357 25.0469 19.9437 24.8335 20.3704 24.3535C20.5837 24.1402 20.6904 23.9269 20.797 23.7135L27.1037 17.5269C27.757 16.8869 28.7704 16.8869 29.4237 17.5269C29.6904 17.8469 29.9037 18.1669 29.9037 18.6469C29.9037 19.1269 29.7437 19.5002 29.4237 19.8202L22.4504 26.7135V26.7002Z" fill="#0C5080"/>
</svg>
