<svg width="284" height="158" viewBox="0 0 284 158" fill="none" xmlns="http://www.w3.org/2000/svg">
    <path d="M154.742 29H75.2582C71.8019 29 69 31.8216 69 35.3022V138.698C69 142.178 71.8019 145 75.2582 145H154.742C158.198 145 161 142.178 161 138.698V35.3022C161 31.8216 158.198 29 154.742 29Z" fill="#A3CDEC"/>
    <path d="M182.674 10H102.326C98.8323 10 96 12.8216 96 16.3022V119.698C96 123.178 98.8323 126 102.326 126H182.674C186.168 126 189 123.178 189 119.698V16.3022C189 12.8216 186.168 10 182.674 10Z" fill="#1A82CF"/>
    <path d="M148.243 57.5263C148.243 54.4295 146.336 51.949 142.56 51.949C139.96 51.949 137.617 53.2045 135.787 55.2437L133 52.7632C135.476 50.0468 138.839 48 143.113 48C149.076 48 153 51.5381 153 57.1992C153 64.77 143.494 67.8136 144.46 75.8638H140.162C138.909 66.9157 148.251 63.6135 148.251 57.5263H148.243ZM138.917 84.4086C138.917 82.2325 140.497 80.7487 142.428 80.7487C144.359 80.7487 145.939 82.2325 145.939 84.4086C145.939 86.5847 144.359 88 142.428 88C140.497 88 138.917 86.5163 138.917 84.4086Z" fill="#C4C4C6"/>
    <path d="M212.428 145.968C209.106 149.013 203.965 148.582 201.172 145.036L166 100.357L172.929 94L212.712 134.444C215.873 137.653 215.743 142.922 212.42 145.96L212.428 145.968Z" fill="#494956"/>
    <path d="M161.195 106.137L178.607 90.5054C181.249 93.4434 181.006 97.9692 178.066 100.609L171.313 106.672C168.373 109.311 163.843 109.069 161.201 106.132L161.195 106.137Z" fill="#096CB6"/>
    <path opacity="0.3" d="M143 104C162.33 104 178 88.1061 178 68.5C178 48.8939 162.33 33 143 33C123.67 33 108 48.8939 108 68.5C108 88.1061 123.67 104 143 104Z" fill="white"/>
    <path d="M114.259 36.1487C96.5968 52.2024 95.1437 79.7039 111.013 97.5718C126.882 115.44 154.067 116.918 171.738 100.856C189.4 84.8023 190.861 57.3007 174.984 39.4251C159.115 21.5573 131.929 20.0872 114.259 36.1409V36.1487ZM165.886 94.2719C151.818 107.057 130.167 105.884 117.529 91.6523C104.891 77.4206 106.05 55.5179 120.118 42.7328C134.187 29.9477 155.838 31.1207 168.476 45.3446C181.114 59.5763 179.954 81.479 165.886 94.2641V94.2719Z" fill="white"/>
    <path opacity="0.6" d="M171.179 63.8679C171.102 63.8994 171.025 63.931 170.948 63.9547C170.194 64.152 169.432 63.6864 169.24 62.9208C167.855 57.4123 165.238 52.6456 161.46 48.7313C157.843 44.9905 153.38 42.6861 148.193 41.8653C147.424 41.7469 146.901 41.013 147.016 40.2238C147.131 39.4346 147.847 38.898 148.617 39.0164C154.411 39.9239 159.405 42.5125 163.453 46.6952C167.586 50.9725 170.448 56.1812 171.957 62.1948C172.126 62.8814 171.787 63.5838 171.179 63.8679Z" fill="url(#paint0_linear_1_2959)"/>
    <path d="M240.998 32.7871C240.308 31.134 238.996 29.8096 237.359 29.1131C236.88 28.9086 236.88 28.2424 237.359 28.0379C238.996 27.341 240.308 26.017 240.998 24.3634C241.2 23.8789 241.859 23.8789 242.062 24.3634C242.751 26.017 244.062 27.341 245.699 28.0379C246.179 28.2424 246.179 28.9086 245.699 29.1131C244.062 29.8096 242.751 31.134 242.062 32.7871C241.859 33.2717 241.2 33.2717 240.998 32.7871Z" fill="#3849D1"/>
    <path d="M26.2482 38.1947C25.17 35.6107 23.1207 33.5412 20.5626 32.4521C19.8125 32.1332 19.8125 31.0908 20.5626 30.7719C23.1207 29.6828 25.17 27.6133 26.2482 25.0288C26.5644 24.2716 27.5955 24.2716 27.9116 25.0288C28.9898 27.6133 31.0387 29.6828 33.5968 30.7719C34.3464 31.0908 34.3464 32.1332 33.5968 32.4521C31.0387 33.5412 28.9898 35.6107 27.9116 38.1947C27.5955 38.9519 26.5644 38.9519 26.2482 38.1947Z" fill="#00AA6D"/>
    <path opacity="0.3" d="M39.5106 84.8951C38.8483 83.3073 37.5893 82.0357 36.0175 81.3662C35.5567 81.1701 35.5567 80.5301 36.0175 80.334C37.5893 79.665 38.8483 78.3934 39.5106 76.8061C39.7047 76.3407 40.3388 76.3407 40.5324 76.8061C41.1952 78.3934 42.4541 79.665 44.026 80.334C44.4863 80.5301 44.4863 81.1701 44.026 81.3662C42.4541 82.0357 41.1952 83.3073 40.5324 84.8951C40.3388 85.36 39.7047 85.36 39.5106 84.8951Z" fill="#9BD81A"/>
    <path d="M26.7244 123.302C26.2461 122.156 25.3374 121.238 24.2024 120.755C23.87 120.613 23.87 120.152 24.2024 120.01C25.3374 119.527 26.2461 118.609 26.7244 117.463C26.8645 117.127 27.322 117.127 27.4625 117.463C27.9404 118.609 28.8486 119.527 29.9832 120.01C30.316 120.152 30.316 120.613 29.9832 120.755C28.8486 121.238 27.9404 122.156 27.4625 123.302C27.322 123.638 26.8645 123.638 26.7244 123.302Z" fill="#83A9F9"/>
    <path d="M209.717 63.9972C209.239 62.8512 208.33 61.9329 207.195 61.4502C206.862 61.3082 206.862 60.847 207.195 60.7051C208.33 60.2224 209.239 59.3041 209.717 58.158C209.857 57.8223 210.314 57.8223 210.454 58.158C210.932 59.3041 211.841 60.2224 212.976 60.7051C213.308 60.847 213.308 61.3082 212.976 61.4502C211.841 61.9329 210.932 62.8512 210.454 63.9972C210.314 64.3329 209.857 64.3329 209.717 63.9972Z" fill="#83A9F9"/>
    <path opacity="0.3" d="M236.263 118.768C235.182 116.177 233.128 114.103 230.564 113.011C229.812 112.691 229.812 111.647 230.564 111.327C233.128 110.235 235.182 108.16 236.263 105.57C236.58 104.81 237.614 104.81 237.931 105.57C239.012 108.16 241.066 110.235 243.63 111.327C244.382 111.647 244.382 112.691 243.63 113.011C241.066 114.103 239.012 116.177 237.931 118.768C237.614 119.527 236.58 119.527 236.263 118.768Z" fill="#9BD81A"/>
    <defs>
        <linearGradient id="paint0_linear_1_2959" x1="104.154" y1="59.7018" x2="200.377" y2="46.137" gradientUnits="userSpaceOnUse">
            <stop stop-color="white"/>
            <stop offset="0.72" stop-color="white" stop-opacity="0"/>
        </linearGradient>
    </defs>
</svg>
