<svg width="300" height="300" viewBox="0 0 300 300" fill="none" xmlns="http://www.w3.org/2000/svg">
<path d="M221.687 101.892C220.253 101.729 218.968 102.779 218.818 104.207C215.056 139.515 185.401 166.137 149.839 166.137C116.213 166.137 87.8757 142.331 81.7074 109.886L85.7761 113.603C86.839 114.574 88.4886 114.496 89.4602 113.433C90.4317 112.37 90.3534 110.721 89.2906 109.749L79.5231 100.829C78.9232 100.281 78.1016 100.04 77.3061 100.19C76.5107 100.334 75.8195 100.836 75.4478 101.56L69.3643 113.303C68.6992 114.581 69.2013 116.159 70.4793 116.817C70.864 117.013 71.2748 117.111 71.6791 117.111C72.6245 117.111 73.5308 116.596 73.9938 115.702L76.5628 110.747C79.5752 126.624 87.6931 141.132 99.8145 152.093C113.54 164.514 131.308 171.347 149.832 171.347C168.357 171.347 186.125 164.507 199.857 152.093C213.484 139.762 222.059 122.953 224.002 104.754C224.152 103.32 223.115 102.035 221.687 101.886V101.892Z" fill="#0C5080"/>
<path d="M229.476 78.2302C228.198 77.5717 226.627 78.0672 225.962 79.3452L223.38 84.3203C220.608 67.8498 212.36 52.7551 199.854 41.4422C186.122 29.0274 168.361 22.1875 149.83 22.1875C131.299 22.1875 113.537 29.0274 99.8118 41.4422C86.1841 53.7723 77.6098 70.5818 75.6668 88.7802C75.5168 90.2147 76.5535 91.4992 77.9815 91.6492C79.4095 91.8057 80.7005 90.7624 80.8505 89.3344C84.6127 54.0266 114.267 27.4038 149.83 27.4038C185.392 27.4038 212.66 51.94 218.229 85.1418L214.179 81.4448C213.117 80.4732 211.467 80.5515 210.495 81.6143C209.524 82.6771 209.602 84.3268 210.665 85.2983L220.432 94.2182C220.915 94.6616 221.547 94.9029 222.193 94.9029C222.343 94.9029 222.499 94.8898 222.649 94.8637C223.445 94.7203 224.136 94.2182 224.508 93.4945L230.591 81.7512C231.256 80.4732 230.754 78.8953 229.476 78.2368V78.2302Z" fill="#0C5080"/>
<path d="M169.858 94.6354C168.235 94.6354 166.924 93.3248 166.924 91.7012V78.2888C166.924 68.9451 159.321 61.3488 149.984 61.3488C140.647 61.3488 133.044 68.9516 133.044 78.2888V91.7012C133.044 93.3248 131.734 94.6354 130.11 94.6354C128.486 94.6354 127.176 93.3248 127.176 91.7012V78.2888C127.176 65.711 137.406 55.4805 149.984 55.4805C162.562 55.4805 172.792 65.711 172.792 78.2888V91.7012C172.792 93.3248 171.482 94.6354 169.858 94.6354Z" fill="#0C5080"/>
<path d="M149.98 138.062C166.3 138.062 179.53 124.832 179.53 108.511C179.53 92.1911 166.3 78.9609 149.98 78.9609C133.66 78.9609 120.43 92.1911 120.43 108.511C120.43 124.832 133.66 138.062 149.98 138.062Z" fill="#0C5080"/>
<path d="M149.987 130.518C162.141 130.518 171.993 120.666 171.993 108.512C171.993 96.3584 162.141 86.5059 149.987 86.5059C137.833 86.5059 127.98 96.3584 127.98 108.512C127.98 120.666 137.833 130.518 149.987 130.518Z" fill="#E54C25"/>
<path d="M171.987 108.512C171.987 108.819 171.98 109.119 171.967 109.419C171.498 97.6818 161.834 88.312 149.987 88.312C138.139 88.312 128.469 97.6818 128 109.419C127.987 109.119 127.98 108.819 127.98 108.512C127.98 96.3582 137.833 86.5059 149.987 86.5059C162.141 86.5059 171.987 96.3582 171.987 108.512Z" fill="#005650"/>
<path d="M146.151 118.879L137.863 110.598L142.115 106.347L146.066 110.299L157.77 98.1445L162.1 102.311L146.151 118.879Z" fill="white"/>
<path fill-rule="evenodd" clip-rule="evenodd" d="M101.93 191.953C95.66 191.953 90.5775 197.035 90.5775 203.305V208.69C90.5775 214.96 95.66 220.042 101.93 220.042H198.027C204.297 220.042 209.379 214.96 209.379 208.69V203.305C209.379 197.035 204.297 191.953 198.027 191.953H101.93ZM89.2734 203.305C89.2734 196.315 94.9398 190.648 101.93 190.648H198.027C205.017 190.648 210.683 196.315 210.683 203.305V208.69C210.683 215.68 205.017 221.346 198.027 221.346H101.93C94.9398 221.346 89.2734 215.68 89.2734 208.69V203.305Z" fill="#0C5080"/>
<path fill-rule="evenodd" clip-rule="evenodd" d="M114.138 197.932C114.678 197.932 115.116 198.37 115.116 198.91V213.092C115.116 213.632 114.678 214.07 114.138 214.07C113.598 214.07 113.16 213.632 113.16 213.092V198.91C113.16 198.37 113.598 197.932 114.138 197.932Z" fill="#040B12" stroke="#969696" stroke-opacity="0.0666667" stroke-linecap="round" stroke-linejoin="round"/>
<path fill-rule="evenodd" clip-rule="evenodd" d="M106.066 206.005C106.066 205.465 106.504 205.027 107.044 205.027H121.22C121.76 205.027 122.198 205.465 122.198 206.005C122.198 206.546 121.76 206.983 121.22 206.983H107.044C106.504 206.983 106.066 206.546 106.066 206.005Z" fill="#040B12" stroke="#969696" stroke-opacity="0.0666667" stroke-linecap="round" stroke-linejoin="round"/>
<path fill-rule="evenodd" clip-rule="evenodd" d="M119.835 200.298C120.217 200.68 120.217 201.3 119.835 201.682L109.806 211.703C109.424 212.085 108.805 212.085 108.423 211.703C108.041 211.321 108.041 210.702 108.423 210.32L118.452 200.298C118.834 199.916 119.453 199.916 119.835 200.298Z" fill="#040B12" stroke="#969696" stroke-opacity="0.0666667" stroke-linecap="round" stroke-linejoin="round"/>
<path fill-rule="evenodd" clip-rule="evenodd" d="M108.423 200.298C108.805 199.916 109.424 199.916 109.806 200.298L119.835 210.32C120.217 210.702 120.217 211.321 119.835 211.703C119.453 212.085 118.834 212.085 118.452 211.703L108.423 201.682C108.041 201.3 108.041 200.68 108.423 200.298Z" fill="#040B12" stroke="#969696" stroke-opacity="0.0666667" stroke-linecap="round" stroke-linejoin="round"/>
<path fill-rule="evenodd" clip-rule="evenodd" d="M138.033 197.932C138.573 197.932 139.011 198.37 139.011 198.91V213.092C139.011 213.632 138.573 214.07 138.033 214.07C137.493 214.07 137.055 213.632 137.055 213.092V198.91C137.055 198.37 137.493 197.932 138.033 197.932Z" fill="#040B12" stroke="#969696" stroke-opacity="0.0666667" stroke-linecap="round" stroke-linejoin="round"/>
<path fill-rule="evenodd" clip-rule="evenodd" d="M129.969 206.005C129.969 205.465 130.407 205.027 130.947 205.027H145.122C145.662 205.027 146.1 205.465 146.1 206.005C146.1 206.546 145.662 206.983 145.122 206.983H130.947C130.407 206.983 129.969 206.546 129.969 206.005Z" fill="#040B12" stroke="#969696" stroke-opacity="0.0666667" stroke-linecap="round" stroke-linejoin="round"/>
<path fill-rule="evenodd" clip-rule="evenodd" d="M143.737 200.298C144.119 200.68 144.119 201.3 143.737 201.682L133.708 211.703C133.326 212.085 132.707 212.085 132.325 211.703C131.943 211.321 131.944 210.702 132.326 210.32L142.354 200.298C142.736 199.916 143.355 199.916 143.737 200.298Z" fill="#040B12" stroke="#969696" stroke-opacity="0.0666667" stroke-linecap="round" stroke-linejoin="round"/>
<path fill-rule="evenodd" clip-rule="evenodd" d="M132.325 200.298C132.707 199.916 133.326 199.916 133.708 200.298L143.737 210.32C144.119 210.702 144.119 211.321 143.737 211.703C143.355 212.085 142.736 212.085 142.354 211.703L132.326 201.682C131.944 201.3 131.943 200.68 132.325 200.298Z" fill="#040B12" stroke="#969696" stroke-opacity="0.0666667" stroke-linecap="round" stroke-linejoin="round"/>
<path fill-rule="evenodd" clip-rule="evenodd" d="M161.931 197.932C162.471 197.932 162.909 198.37 162.909 198.91V213.092C162.909 213.632 162.471 214.07 161.931 214.07C161.391 214.07 160.953 213.632 160.953 213.092V198.91C160.953 198.37 161.391 197.932 161.931 197.932Z" fill="#040B12" stroke="#969696" stroke-opacity="0.0666667" stroke-linecap="round" stroke-linejoin="round"/>
<path fill-rule="evenodd" clip-rule="evenodd" d="M153.867 206.005C153.867 205.465 154.305 205.027 154.845 205.027H169.021C169.561 205.027 169.999 205.465 169.999 206.005C169.999 206.546 169.561 206.983 169.021 206.983H154.845C154.305 206.983 153.867 206.546 153.867 206.005Z" fill="#040B12" stroke="#969696" stroke-opacity="0.0666667" stroke-linecap="round" stroke-linejoin="round"/>
<path fill-rule="evenodd" clip-rule="evenodd" d="M167.641 200.298C168.023 200.68 168.023 201.299 167.641 201.681L157.619 211.703C157.237 212.085 156.618 212.085 156.236 211.703C155.854 211.321 155.854 210.702 156.236 210.32L166.258 200.298C166.639 199.916 167.259 199.916 167.641 200.298Z" fill="#040B12" stroke="#969696" stroke-opacity="0.0666667" stroke-linecap="round" stroke-linejoin="round"/>
<path fill-rule="evenodd" clip-rule="evenodd" d="M156.236 200.298C156.618 199.916 157.237 199.916 157.619 200.298L167.641 210.32C168.023 210.702 168.023 211.321 167.641 211.703C167.259 212.085 166.639 212.085 166.258 211.703L156.236 201.681C155.854 201.299 155.854 200.68 156.236 200.298Z" fill="#040B12" stroke="#969696" stroke-opacity="0.0666667" stroke-linecap="round" stroke-linejoin="round"/>
<path fill-rule="evenodd" clip-rule="evenodd" d="M185.826 197.932C186.366 197.932 186.804 198.37 186.804 198.91V213.092C186.804 213.632 186.366 214.07 185.826 214.07C185.286 214.07 184.848 213.632 184.848 213.092V198.91C184.848 198.37 185.286 197.932 185.826 197.932Z" fill="#040B12" stroke="#969696" stroke-opacity="0.0666667" stroke-linecap="round" stroke-linejoin="round"/>
<path fill-rule="evenodd" clip-rule="evenodd" d="M177.754 206.005C177.754 205.465 178.192 205.027 178.732 205.027H192.914C193.454 205.027 193.892 205.465 193.892 206.005C193.892 206.546 193.454 206.983 192.914 206.983H178.732C178.192 206.983 177.754 206.546 177.754 206.005Z" fill="#040B12" stroke="#969696" stroke-opacity="0.0666667" stroke-linecap="round" stroke-linejoin="round"/>
<path fill-rule="evenodd" clip-rule="evenodd" d="M191.524 200.298C191.905 200.68 191.905 201.299 191.524 201.681L181.502 211.703C181.12 212.085 180.5 212.085 180.118 211.703C179.737 211.321 179.737 210.702 180.118 210.32L190.14 200.298C190.522 199.916 191.142 199.916 191.524 200.298Z" fill="#040B12" stroke="#969696" stroke-opacity="0.0666667" stroke-linecap="round" stroke-linejoin="round"/>
<path fill-rule="evenodd" clip-rule="evenodd" d="M180.118 200.298C180.5 199.916 181.12 199.916 181.502 200.298L191.524 210.32C191.905 210.702 191.905 211.321 191.524 211.703C191.142 212.085 190.522 212.085 190.14 211.703L180.118 201.681C179.737 201.299 179.737 200.68 180.118 200.298Z" fill="#040B12" stroke="#969696" stroke-opacity="0.0666667" stroke-linecap="round" stroke-linejoin="round"/>
<path d="M88.0946 284.891C88.0946 284.891 134.591 284.891 170.06 284.891M173.458 266.703L209.606 266.852M88.0946 266.852L149.255 266.703M88.0469 248.652H209.557" stroke="#E54C25" stroke-width="8.37527" stroke-linecap="round" stroke-linejoin="round"/>
</svg>
