<svg width="160" height="160" viewBox="0 0 160 160" fill="none" xmlns="http://www.w3.org/2000/svg">
<path d="M136.23 44.8125H69.6354C60.9484 44.8125 53.9062 51.8411 53.9062 60.5113V126.977C53.9062 135.648 60.9484 142.676 69.6354 142.676H136.23C144.917 142.676 151.959 135.648 151.959 126.977V60.5113C151.959 51.8411 144.917 44.8125 136.23 44.8125Z" fill="#1A82CF" fill-opacity="0.1"/>
<mask id="mask0_543_43401" style="mask-type:alpha" maskUnits="userSpaceOnUse" x="53" y="44" width="99" height="99">
<path opacity="0.8" d="M136.23 44.8125H69.6354C60.9484 44.8125 53.9062 51.8411 53.9062 60.5113V126.977C53.9062 135.648 60.9484 142.676 69.6354 142.676H136.23C144.917 142.676 151.959 135.648 151.959 126.977V60.5113C151.959 51.8411 144.917 44.8125 136.23 44.8125Z" fill="#1A82CF"/>
</mask>
<g mask="url(#mask0_543_43401)">
<path d="M81.3174 66.9297C81.3174 66.9297 83.1035 70.5901 82.3467 74.1973C84.6073 72.9128 87.2231 72.1716 90.0215 72.1494C95.2028 72.1032 99.8062 74.5501 102.721 78.3594C105.635 74.5501 110.239 72.1032 115.42 72.1494C118.321 72.1724 121.026 72.9682 123.342 74.3408C122.811 70.7657 124.964 67.1243 124.968 67.1172C126.197 73.5099 128.027 78.0619 128.693 79.5947C130.207 82.0446 131.066 84.945 131.033 88.0557C131.033 88.9328 130.941 89.81 130.802 90.6641C130.362 93.0651 131.149 95.5361 132.86 97.2676C133.485 97.914 134.04 98.6064 134.549 99.3682C125.852 104.724 114.864 107.934 102.929 107.934C90.9932 107.934 79.7747 104.655 71.0312 99.1836C71.4707 98.4911 72.0029 97.8678 72.5811 97.2676C74.2928 95.5361 75.0791 93.0651 74.6396 90.6641C74.5009 89.81 74.4082 88.9328 74.4082 88.0557C74.3778 85.1796 75.1093 82.4829 76.416 80.1562L76.4141 80.1582C76.4146 80.1573 76.426 80.1372 76.4492 80.0996C76.533 79.9518 76.6196 79.8058 76.708 79.6611C77.5646 78.1734 80.0648 73.4458 81.3174 66.9297Z" fill="#43354E"/>
<path d="M123.115 91.1729C125.798 91.1729 127.973 89.0023 127.973 86.3247C127.973 83.6472 125.798 81.4766 123.115 81.4766C120.433 81.4766 118.258 83.6472 118.258 86.3247C118.258 89.0023 120.433 91.1729 123.115 91.1729Z" fill="#E4E8EC"/>
<path d="M82.7325 91.1729C85.4152 91.1729 87.59 89.0023 87.59 86.3247C87.59 83.6472 85.4152 81.4766 82.7325 81.4766C80.0498 81.4766 77.875 83.6472 77.875 86.3247C77.875 89.0023 80.0498 91.1729 82.7325 91.1729Z" fill="#E4E8EC"/>
<path d="M144.766 142.676H61.1016L64.71 126.077C66.1673 119.405 71.418 114.256 78.126 112.917L102.922 108L127.719 112.917C134.427 114.233 139.678 119.405 141.135 126.077L144.743 142.676H144.766Z" fill="#0C5080"/>
<path d="M102.949 119.594C98.2072 119.594 94.5063 113.892 94.9226 109.182L95.9404 98.0547H109.958L110.976 109.182C111.392 113.892 107.691 119.594 102.949 119.594Z" fill="#E4E8EC"/>
<path d="M122.881 78.4733C121.91 55.0405 102.919 55.1328 102.919 55.1328C102.919 55.1328 83.9286 55.0405 82.9571 78.4733C82.2863 94.7031 91.3536 102.853 97.5065 106.477C100.86 108.463 105.001 108.463 108.355 106.477C114.485 102.853 123.552 94.68 122.904 78.4733H122.881Z" fill="#E4E8EC"/>
<path d="M90.1797 54.7414C103.949 46.961 114.13 55.867 114.189 55.9192C114.189 55.9192 122.448 56.1038 124.992 67.1389C126.023 71.634 125.38 75.0959 124.55 77.3557L125.896 76.9534C125.896 81.7461 122.233 87.4588 122.219 87.4807C122.974 83.3038 122.067 80.8676 121.289 79.633C118.571 78.0881 113.445 73.9758 113.496 64.9455L113.473 64.9231C113.457 64.9837 110.512 76.1837 85.4619 78.6086C85.2003 78.8204 82.5333 81.1546 83.6777 87.4807C83.6777 87.4807 80.0002 81.7553 80 76.9534L81.4014 77.3713C80.4805 73.2611 79.1014 61.7573 90.1797 54.7414Z" fill="#362A40"/>
</g>
<path d="M67.5011 143.105L17.8187 146.34C14.3822 146.564 11.4155 143.96 11.192 140.524L6.67743 71.2036C6.45399 67.7671 9.05763 64.8009 12.4936 64.5769L62.1765 61.3416C65.612 61.1176 68.5793 63.7217 68.8027 67.1577L73.3173 136.478C73.5412 139.914 70.9371 142.881 67.5011 143.105Z" fill="#E4E8EC"/>
<path d="M66.2636 140.824L18.7511 143.918C15.9758 144.098 13.5788 141.996 13.398 139.22L9.03427 72.2085C8.85348 69.4322 10.9569 67.0358 13.7327 66.855L61.2447 63.7608C64.0205 63.5805 66.4174 65.6839 66.5982 68.4597L70.962 135.47C71.1428 138.246 69.0394 140.643 66.2636 140.824Z" fill="white"/>
<path d="M16.9501 75.129C16.7251 72.2329 18.9956 69.712 22.0223 69.4987C25.049 69.286 27.6846 71.461 27.9101 74.3571C28.1345 77.2533 25.8635 79.7747 22.8369 79.9874C19.8107 80.2007 17.1746 78.0252 16.9501 75.129ZM25.1505 81.708L20.8147 82.0132C16.8958 82.2894 13.9554 85.5533 14.2464 89.3036C14.3449 90.5681 15.4957 91.5177 16.8171 91.4248L30.5584 90.4574C31.8803 90.3639 32.8721 89.2629 32.7741 87.9985C32.4826 84.2481 29.0694 81.4322 25.1505 81.708Z" fill="#C4CDD5"/>
<path d="M60.577 96.3824L16.3995 99.2593C15.5742 99.3131 14.8617 98.688 14.8079 97.8622C14.7541 97.037 15.3797 96.3245 16.205 96.2707L60.3825 93.3939C61.2078 93.34 61.9202 93.9657 61.9741 94.7909C62.0279 95.6161 61.4022 96.3286 60.577 96.3824ZM62.4189 101.622C62.3651 100.796 61.6526 100.171 60.8274 100.225L16.6498 103.102C15.8246 103.155 15.1989 103.868 15.2528 104.694C15.3066 105.519 16.0191 106.144 16.8443 106.091L61.0219 103.214C61.8471 103.16 62.4728 102.447 62.4189 101.622ZM62.9212 109.328C62.8668 108.503 62.1543 107.877 61.3291 107.931L17.1515 110.808C16.3263 110.862 15.7007 111.574 15.7545 112.4C15.8083 113.225 16.5208 113.85 17.346 113.797L61.5241 110.92C62.3493 110.866 62.9745 110.153 62.9212 109.328ZM64.2039 129.028L63.6646 120.755C63.5006 118.229 61.3195 116.315 58.7945 116.48L20.7744 118.955C18.2485 119.12 16.3345 121.301 16.499 123.827L17.0378 132.1C17.2018 134.625 19.3829 136.54 21.9084 136.375L59.9285 133.899C62.4545 133.735 64.368 131.554 64.2039 129.028Z" fill="#E4E8EC"/>
<g clip-path="url(#clip0_543_43401)">
<mask id="mask1_543_43401" style="mask-type:luminance" maskUnits="userSpaceOnUse" x="28" y="97" width="63" height="59">
<path d="M90.6667 97.3281H28V155.995H90.6667V97.3281Z" fill="white"/>
</mask>
<g mask="url(#mask1_543_43401)">
<path d="M80.3273 126.564C80.3273 127.915 78.4551 129.064 78.2035 130.342C77.9451 131.658 79.2328 133.438 78.7335 134.648C78.2258 135.88 76.0587 136.221 75.3297 137.316C74.5953 138.419 75.1074 140.562 74.1774 141.497C73.2472 142.433 71.1165 141.918 70.0199 142.656C68.9312 143.389 68.593 145.569 67.3685 146.08C66.1648 146.582 64.3951 145.286 63.0871 145.547C61.8173 145.799 60.6748 147.682 59.3316 147.682C57.9882 147.682 56.8457 145.799 55.5761 145.547C54.2676 145.286 52.4979 146.582 51.2939 146.08C50.0694 145.569 49.7312 143.389 48.6425 142.656C47.5456 141.917 45.4149 142.432 44.485 141.496C43.555 140.561 44.0671 138.418 43.3327 137.314C42.6043 136.22 40.4372 135.879 39.9295 134.648C39.4302 133.437 40.7182 131.657 40.4594 130.341C40.2082 129.064 38.3359 127.915 38.3359 126.564C38.3359 125.213 40.2082 124.064 40.4594 122.786C40.7182 121.47 39.4305 119.69 39.9295 118.479C40.4375 117.247 42.6046 116.907 43.3335 115.812C44.0679 114.709 43.5559 112.566 44.4858 111.63C45.416 110.695 47.5465 111.21 48.6436 110.472C49.7321 109.739 50.07 107.559 51.2948 107.048C52.4985 106.546 54.2682 107.842 55.5761 107.581C56.846 107.329 57.9882 105.445 59.3316 105.445C60.6751 105.445 61.8173 107.329 63.0871 107.581C64.3957 107.842 66.1654 106.546 67.3691 107.049C68.5939 107.559 68.9321 109.739 70.0208 110.472C71.1174 111.211 73.2481 110.696 74.1783 111.631C75.1082 112.567 74.5959 114.71 75.3303 115.814C76.0592 116.908 78.2261 117.248 78.7338 118.48C79.2331 119.691 77.9451 121.471 78.2038 122.787C78.4551 124.064 80.3273 125.213 80.3273 126.564Z" fill="#0C9F63"/>
<mask id="mask2_543_43401" style="mask-type:alpha" maskUnits="userSpaceOnUse" x="33" y="102" width="53" height="54">
<path d="M48.6641 125.235L57.5356 133.209L69.8048 118.305" stroke="white" stroke-width="31" stroke-linecap="round"/>
</mask>
<g mask="url(#mask2_543_43401)">
<path d="M67.2828 118.52C68.0758 119.064 68.8335 119.66 69.5514 120.304C69.8355 120.594 69.8358 121.064 69.5517 121.354C69.5517 121.354 58.5843 134.677 58.2188 135.03C57.9594 135.39 57.4626 135.467 57.1099 135.202C57.0733 135.175 57.0392 135.144 57.008 135.111C56.4759 134.711 49.2426 129.079 49.2426 129.079C48.8718 128.764 48.7894 128.217 49.0503 127.802C49.5126 127.077 50.035 126.394 50.6118 125.76C50.9434 125.443 51.459 125.443 51.7906 125.76C52.055 125.954 56.3174 129.407 56.614 129.592C56.9906 129.781 57.4453 129.674 57.7017 129.334C58.0554 128.956 66.4863 118.584 66.4863 118.584C66.6512 118.345 66.9751 118.288 67.2092 118.456C67.2357 118.475 67.2601 118.496 67.2828 118.52Z" fill="white"/>
</g>
</g>
</g>
<defs>
<clipPath id="clip0_543_43401">
<rect width="62.6667" height="58.6667" fill="white" transform="translate(28 97.3281)"/>
</clipPath>
</defs>
</svg>
