<svg width="32" height="32" viewBox="0 0 32 32" fill="none" xmlns="http://www.w3.org/2000/svg">
    <path d="M11 15V27.4202C11 27.7449 10.7121 28 10.3458 28H4.65421C4.28785 28 4 27.7449 4 27.4202V19.7779L11 15Z" fill="#0C5080"/>
    <path d="M29 10V27.4249C29 27.747 28.7127 28 28.347 28H22.653C22.2873 28 22 27.747 22 27.4249V14.9342L29 10Z" fill="#0C5080"/>
    <path d="M20 16.3687V27.4413C20 27.7542 19.7121 28 19.3458 28H13.6542C13.2879 28 13 27.7542 13 27.4413V16L16.1009 18.4693C16.3234 18.648 16.6505 18.6592 16.886 18.4916L20 16.3687Z" fill="#0C5080"/>
    <path d="M28.292 1.65275V4.73275C28.292 4.98608 28.172 5.23942 27.972 5.39942L16.4253 14.6261C16.212 14.7994 15.9186 14.7861 15.7186 14.5994L11.7986 10.9328C11.5986 10.7461 11.3053 10.7328 11.092 10.8928L4.1053 16.2794C3.93197 16.4128 3.69197 16.2794 3.69197 16.0794V12.9994C3.69197 12.6928 3.83864 12.3994 4.07864 12.2128L11.292 6.66608C11.5053 6.50608 11.7986 6.51942 11.9986 6.70608L15.8653 10.3328C16.0653 10.5194 16.3586 10.5328 16.572 10.3594L27.772 1.42608C27.972 1.26608 28.2653 1.41275 28.2653 1.66608L28.292 1.65275Z" fill="#0C5080"/>
</svg>
